<?xml version="1.0" standalone="no"?>
<!DOCTYPE svg PUBLIC "-//W3C//DTD SVG 1.1//EN" "http://www.w3.org/Graphics/SVG/1.1/DTD/svg11.dtd" >
<svg xmlns="http://www.w3.org/2000/svg" xmlns:xlink="http://www.w3.org/1999/xlink" version="1.1">
<metadata>
Created by FontForge 20170731 at Tue May 16 12:56:16 2000
 By Aleksey,,,
URW Software, Copyright 1994 by URW
</metadata>
<defs>
<font id="RomanaBeckerDemi" horiz-adv-x="1024" vert-adv-y="2048" >
  <font-face 
    font-family="Romana Becker Demi"
    font-weight="400"
    font-stretch="normal"
    units-per-em="2048"
    panose-1="0 0 0 0 0 0 0 0 0 0"
    ascent="1570"
    descent="-478"
    x-height="931"
    cap-height="1365"
    bbox="-194 -517 2143 1795"
    underline-thickness="170"
    underline-position="-529"
    unicode-range="U+0020-F002"
  />
<missing-glyph horiz-adv-x="614" vert-adv-y="1502" 
d="M61 0v1365h492v-1365h-492zM492 61v1243h-370v-1243h370z" />
    <glyph glyph-name=".notdef" horiz-adv-x="614" vert-adv-y="1502" 
d="M61 0v1365h492v-1365h-492zM492 61v1243h-370v-1243h370z" />
    <glyph glyph-name="glyph1" horiz-adv-x="0" vert-adv-y="0" 
 />
    <glyph glyph-name="glyph2" horiz-adv-x="614" vert-adv-y="1502" 
 />
    <glyph glyph-name="space" unicode=" " horiz-adv-x="614" vert-adv-y="1502" 
 />
    <glyph glyph-name="exclam" unicode="!" horiz-adv-x="618" vert-adv-y="1502" 
d="M240 385l-116 683q-13 79 -13 153q0 106 56 145q48 33 140 33q97 0 145 -33q56 -39 56 -146q0 -72 -14 -152l-115 -683h-139zM312 260q74 0 123 -46q41 -37 41 -93q0 -69 -57 -111q-48 -35 -116 -35q-70 0 -115 39q-46 40 -46 103q0 64 54 107q45 36 116 36z" />
    <glyph glyph-name="quotedbl" unicode="&#x22;" horiz-adv-x="966" vert-adv-y="1502" 
d="M312 817h-141l-95 548h332zM793 817h-141l-95 548h333z" />
    <glyph glyph-name="numbersign" unicode="#" horiz-adv-x="1181" vert-adv-y="1502" 
d="M787 465l-125 -465h-143l126 465h-216l-126 -465h-140l126 465h-227l22 127h241l55 210h-225l22 127h238l119 436h140l-118 -436h216l118 436h142l-118 -436h207l-22 -127h-221l-55 -210h208l-22 -127h-222zM681 592l55 210h-216l-55 -210h216z" />
    <glyph glyph-name="dollar" unicode="$" horiz-adv-x="1161" vert-adv-y="1502" 
d="M651 1497v-169q99 -12 179 -42q40 -16 152 -64l-48 -239h-45q-12 80 -32 123q-44 89 -128 134q-63 34 -138 34q-102 0 -162 -59q-54 -54 -54 -137q0 -119 104 -186q59 -38 140 -72l168 -70q160 -67 214 -143t54 -178q0 -162 -122 -272q-77 -69 -175 -92q-46 -12 -107 -21
v-184h-137v184q-121 18 -205 44q-80 27 -203 97l54 259h47q2 -87 19 -134q37 -104 144 -161q89 -48 188 -48q116 0 177 72q49 58 49 133q0 102 -95 176q-65 50 -209 110q-122 51 -186 90q-66 41 -115 121q-52 84 -52 177q0 113 74 203q72 88 182 122q44 13 131 23v169h137z
" />
    <glyph glyph-name="percent" unicode="%" horiz-adv-x="1457" vert-adv-y="1502" 
d="M148 0l1026 1365h135l-1026 -1365h-135zM382 1399q110 0 197 -67q61 -47 95 -133q31 -79 31 -169q0 -151 -90 -259q-84 -102 -233 -102q-120 0 -211 69q-61 46 -94 131q-31 79 -31 170q0 154 90 255q93 105 246 105zM372 1345q-38 0 -60 -32t-27 -75q-11 -88 -11 -200
q0 -221 37 -280q23 -36 64 -36q42 0 65 36q37 58 37 255q0 195 -21 259q-24 73 -84 73zM1088 696q110 0 197 -67q61 -47 95 -133q31 -79 31 -169q0 -151 -90 -259q-84 -102 -233 -102q-120 0 -211 69q-61 46 -94 131q-31 79 -31 170q0 154 90 255q93 105 246 105zM1078 642
q-38 0 -60 -32t-27 -75q-11 -88 -11 -200q0 -221 37 -280q23 -36 64 -36q42 0 65 36q37 58 37 255q0 195 -21 259q-24 73 -84 73z" />
    <glyph glyph-name="ampersand" unicode="&#x26;" horiz-adv-x="1359" vert-adv-y="1502" 
d="M1032 344l117 -180q41 -63 95 -101q29 -20 87 -37v-26h-441l-75 114q-87 -71 -146 -98q-105 -50 -230 -50q-195 0 -296 112q-102 113 -102 274q0 178 129 291q76 66 169 103q54 22 126 46l-39 98q-38 95 -38 189q0 130 94 220q104 101 295 101q156 0 256 -56
q80 -46 80 -119q0 -37 -23 -68q-36 -46 -104 -46q-97 0 -143 113q-25 61 -39 79q-30 37 -76 37q-54 0 -85 -47q-22 -32 -22 -74q0 -69 57 -183l314 -628q67 109 100 223q30 103 30 159q0 80 -87 106v27h280v-27q-39 -16 -59 -36q-28 -31 -50 -101q-52 -171 -83 -247
q-29 -69 -91 -168zM486 730q-95 -63 -126 -117q-32 -56 -32 -122q0 -74 34 -160q39 -99 103 -166q74 -76 159 -76q48 0 97 32q20 13 59 47q-165 272 -294 562z" />
    <glyph glyph-name="quotesingle" unicode="'" horiz-adv-x="534" vert-adv-y="1502" 
d="M343 817h-152l-96 548h344z" />
    <glyph glyph-name="parenleft" unicode="(" horiz-adv-x="726" vert-adv-y="1502" 
d="M620 -328q-165 111 -270 217q-262 265 -262 672q0 278 127 485q118 193 405 371v-41q-91 -100 -145 -199q-69 -129 -105 -318q-28 -146 -28 -299q0 -292 90 -544q56 -156 188 -292v-52z" />
    <glyph glyph-name="parenright" unicode=")" horiz-adv-x="726" vert-adv-y="1502" 
d="M106 -328v52q86 88 137 180q71 128 110 325q31 160 31 330q0 260 -79 494q-58 170 -199 323v41q172 -106 282 -215q250 -248 250 -641q0 -297 -143 -523q-117 -183 -389 -366z" />
    <glyph glyph-name="asterisk" unicode="*" horiz-adv-x="963" vert-adv-y="1502" 
d="M483 1394q44 0 74 -28q28 -26 28 -65q0 -36 -31 -104q-46 -103 -46 -127t25 -24q19 0 72 48q72 64 102 84q31 21 60 21q44 0 70 -35q23 -31 23 -72q0 -98 -112 -98q-29 0 -122 6q-51 2 -54 2q-35 0 -35 -25q0 -16 23 -33q23 -15 99 -60q58 -33 78 -51q29 -25 29 -62
q0 -60 -51 -91q-31 -19 -72 -19q-49 0 -72 46q-13 27 -30 103q-20 94 -31 117q-11 21 -28 21q-20 0 -31 -26q-11 -27 -29 -112q-20 -93 -40 -120q-22 -29 -62 -29q-41 0 -72 19q-51 32 -51 91q0 37 29 62q20 18 78 51q83 48 104 65q18 13 18 27q0 26 -37 26q-23 0 -101 -6
q-45 -3 -74 -3q-112 0 -112 98q0 42 23 73q27 35 69 35q32 0 69 -26q27 -19 94 -79q53 -48 72 -48q25 0 25 25q0 23 -46 126q-31 68 -31 104q0 46 37 73q28 20 69 20z" />
    <glyph glyph-name="plus" unicode="+" vert-adv-y="1502" 
d="M10 833h412v415h177v-415h415v-170h-415v-415h-177v415h-412v170z" />
    <glyph glyph-name="comma" unicode="," horiz-adv-x="565" vert-adv-y="1502" 
d="M107 -270q153 131 153 203q0 31 -48 54q-45 22 -64 43q-30 32 -30 85q0 71 54 110q48 34 114 34q84 0 133 -51q41 -43 41 -110q0 -123 -136 -268q-88 -95 -188 -155z" />
    <glyph glyph-name="hyphen" unicode="-" horiz-adv-x="467" vert-adv-y="1502" 
d="M0 465v148h467v-148h-467z" />
    <glyph glyph-name="period" unicode="." horiz-adv-x="564" vert-adv-y="1502" 
d="M285 260q74 0 123 -46q41 -37 41 -93q0 -69 -57 -111q-48 -35 -116 -35q-70 0 -115 39q-46 40 -46 103q0 64 54 107q45 36 116 36z" />
    <glyph glyph-name="slash" unicode="/" horiz-adv-x="776" vert-adv-y="1502" 
d="M218 -287h-169l461 1652h166z" />
    <glyph glyph-name="zero" unicode="0" horiz-adv-x="1195" vert-adv-y="1502" 
d="M605 1399q197 0 328 -118q92 -83 139 -203q73 -184 73 -396q0 -211 -73 -395q-74 -187 -236 -268q-105 -53 -238 -53q-204 0 -335 119q-91 83 -139 202q-73 183 -73 392q0 212 73 399t236 269q103 52 245 52zM595 1347q-60 0 -110 -51q-58 -58 -83 -194
q-29 -154 -29 -420q0 -405 74 -560q24 -49 71 -79q36 -24 80 -24q63 0 114 51q111 113 111 601q0 423 -74 573q-52 103 -154 103z" />
    <glyph glyph-name="one" unicode="1" horiz-adv-x="1195" vert-adv-y="1502" 
d="M766 1379v-1217q2 -111 81 -138v-24h-496v24q82 28 83 138v957q0 99 -83 105v42q134 36 173 52q35 11 145 61h97z" />
    <glyph glyph-name="two" unicode="2" horiz-adv-x="1195" vert-adv-y="1502" 
d="M966 0h-908v47q96 128 130 165q59 70 179 187q167 160 216 221q176 216 176 426q0 95 -33 175q-50 122 -143 122q-113 0 -134 -151q-13 -96 -37 -133q-37 -56 -131 -56q-89 0 -126 55q-21 30 -21 68q0 108 123 190q126 83 322 83q183 0 319 -71q186 -98 186 -329
q0 -144 -96 -255q-47 -55 -89 -83q-34 -24 -160 -96q-122 -70 -217 -153q-63 -55 -169 -170h361q150 2 226 48q44 28 88 88l42 -14z" />
    <glyph glyph-name="three" unicode="3" horiz-adv-x="1195" vert-adv-y="1502" 
d="M668 744q41 -9 53 -12q109 -25 150 -44q204 -95 204 -297q0 -187 -146 -303q-154 -122 -393 -122q-218 0 -348 90q-95 66 -95 151q0 45 32 80q40 44 105 44q62 0 102 -39q45 -43 71 -145q17 -62 32 -84q29 -42 95 -42q74 0 125 50q34 33 54 81q42 104 42 221
q0 166 -78 246q-76 78 -244 78h-31v40q103 13 166 42q159 71 159 296q0 102 -43 188q-40 78 -122 78q-62 0 -92 -49q-18 -29 -28 -119q-8 -74 -48 -108q-43 -37 -107 -37q-76 0 -113 50q-20 28 -20 65q0 57 40 105q62 74 160 110q111 41 233 41q230 0 358 -106
q44 -36 71 -98q25 -55 25 -115q0 -169 -177 -264q-61 -32 -192 -72z" />
    <glyph glyph-name="four" unicode="4" horiz-adv-x="1195" vert-adv-y="1502" 
d="M1129 327h-176v-158q0 -110 80 -138v-31h-495v31q77 26 80 138v158h-552v69l601 983h286v-901h176v-151zM210 478h408v671z" />
    <glyph glyph-name="five" unicode="5" horiz-adv-x="1195" vert-adv-y="1502" 
d="M999 1372q-86 -80 -165 -127q-253 -141 -520 -137l-9 -304q51 69 109 101q98 56 228 56q220 0 341 -142q106 -124 106 -315q0 -154 -73 -283q-68 -119 -177 -181q-131 -74 -300 -74q-121 0 -234 41q-120 43 -178 130q-21 32 -21 78q0 36 20 65q36 52 114 52
q118 0 153 -139q19 -77 32 -101q37 -69 117 -69q77 0 126 67q100 139 100 363q0 202 -102 311q-59 64 -152 64q-88 0 -155 -62q-31 -29 -64 -95l-81 10l27 695q158 -41 310 -41q204 0 342 45q16 6 70 29z" />
    <glyph glyph-name="six" unicode="6" horiz-adv-x="1195" vert-adv-y="1502" 
d="M412 826q123 140 282 140q170 0 287 -109q72 -67 108 -180q28 -90 28 -191q0 -182 -94 -324q-70 -104 -191 -155q-96 -41 -213 -41q-242 0 -388 162q-154 170 -154 496q0 345 156 576q76 112 218 163q101 36 225 36q238 0 337 -117q29 -34 29 -74q0 -46 -43 -79
q-41 -31 -93 -31q-59 0 -104 37q-31 26 -51 63q-4 9 -28 58q-39 79 -105 79q-103 0 -152 -137q-42 -119 -51 -309q-3 -54 -3 -63zM615 907q-56 0 -104 -46q-94 -92 -94 -418q0 -211 53 -323q47 -97 137 -97q101 0 141 111q50 136 50 340q0 210 -53 336q-40 97 -130 97z" />
    <glyph glyph-name="seven" unicode="7" horiz-adv-x="1195" vert-adv-y="1502" 
d="M661 0h-336q37 211 61 307q80 326 250 589q81 124 174 221h-439q-102 -1 -143 -39q-27 -25 -43 -87h-45l29 374h902v-43q-86 -99 -140 -179q-271 -402 -271 -1054q0 -28 1 -89z" />
    <glyph glyph-name="eight" unicode="8" horiz-adv-x="1195" vert-adv-y="1502" 
d="M441 688q-321 117 -321 350q0 128 86 217q140 144 398 144q182 0 309 -69q153 -83 153 -227q0 -134 -126 -224q-69 -49 -194 -94q141 -56 226 -119q156 -114 156 -288q0 -188 -162 -307q-144 -105 -361 -105q-231 0 -395 104q-144 92 -144 253q0 225 375 365zM529 636
q-10 -4 -20 -10q-51 -24 -78 -48q-92 -78 -92 -234q0 -135 67 -230q65 -91 188 -91q93 0 159 58q88 77 88 205q0 150 -144 256q-46 34 -115 69q-51 26 -53 25zM653 829q8 5 17 11q31 21 55 47q99 106 99 235q0 113 -78 174q-61 47 -143 47q-97 0 -154 -66q-52 -59 -52 -146
q0 -134 121 -227q42 -32 89 -55q44 -21 46 -20z" />
    <glyph glyph-name="nine" unicode="9" horiz-adv-x="1195" vert-adv-y="1502" 
d="M783 539q-123 -140 -281 -140q-171 0 -288 109q-72 67 -107 179q-29 90 -29 190q0 182 95 326q69 106 190 155q98 41 213 41q243 0 389 -162q154 -170 154 -495q0 -346 -157 -577q-75 -112 -218 -163q-101 -36 -225 -36q-237 0 -337 117q-29 34 -29 75q0 46 43 79
q41 31 93 31q59 0 104 -37q31 -26 50 -63q6 -10 29 -58q39 -79 105 -79q103 0 152 137q43 120 52 309q2 53 2 62zM587 1342q-63 0 -108 -53q-36 -45 -57 -147q-25 -124 -25 -256q0 -201 53 -331q39 -97 127 -97q202 0 202 459q0 425 -192 425z" />
    <glyph glyph-name="colon" unicode=":" horiz-adv-x="523" vert-adv-y="1502" 
d="M265 260q74 0 123 -46q41 -37 41 -93q0 -69 -57 -111q-48 -35 -116 -35q-70 0 -115 39q-46 40 -46 103q0 64 54 107q45 36 116 36zM265 844q73 0 123 -46q41 -37 41 -93q0 -69 -57 -111q-48 -35 -116 -35q-71 0 -115 39q-46 40 -46 103q0 64 54 107q45 36 116 36z" />
    <glyph glyph-name="semicolon" unicode=";" horiz-adv-x="524" vert-adv-y="1502" 
d="M86 -270q153 131 153 203q0 31 -48 54q-45 22 -64 43q-30 32 -30 85q0 71 54 110q48 34 114 34q84 0 133 -51q41 -43 41 -110q0 -123 -136 -268q-88 -95 -188 -155zM273 844q73 0 123 -46q41 -37 41 -93q0 -69 -57 -111q-48 -35 -116 -35q-71 0 -115 39q-46 40 -46 103
q0 65 54 107q45 36 116 36z" />
    <glyph glyph-name="less" unicode="&#x3c;" vert-adv-y="1502" 
d="M946 1310v-144l-480 -300l480 -328v-382l-868 596v19z" />
    <glyph glyph-name="equal" unicode="=" vert-adv-y="1502" 
d="M10 989h1005v-165h-1005v165zM10 673h1005v-166h-1005v166z" />
    <glyph glyph-name="greater" unicode="&#x3e;" vert-adv-y="1502" 
d="M78 156v144l480 300l-480 328v382l868 -596v-19z" />
    <glyph glyph-name="question" unicode="?" horiz-adv-x="1063" vert-adv-y="1502" 
d="M442 378h-111l-36 328q384 5 384 344q0 131 -64 215q-49 63 -114 63q-76 0 -98 -56q-7 -20 -10 -102q-2 -55 -34 -91q-49 -53 -131 -53q-89 0 -128 55q-23 32 -23 72q0 72 57 126q125 120 379 120q242 0 370 -127q112 -112 112 -280q0 -222 -173 -346q-84 -61 -177 -81
q-76 -16 -183 -25zM390 260q74 0 123 -46q41 -37 41 -93q0 -69 -57 -111q-48 -35 -116 -35q-70 0 -115 39q-46 40 -46 103q0 64 54 107q45 36 116 36z" />
    <glyph glyph-name="at" unicode="@" horiz-adv-x="1610" vert-adv-y="1502" 
d="M1313 336l118 -4q-71 -110 -146 -178q-94 -84 -215 -130q-120 -46 -247 -46q-175 0 -333 86q-176 97 -273 277q-86 159 -86 337q0 231 138 419q122 166 315 241q127 49 264 49q268 0 453 -172q179 -167 179 -403q0 -144 -70 -270q-77 -140 -217 -212q-82 -42 -158 -42
q-115 0 -154 107q-112 -114 -232 -114q-99 0 -166 76q-73 82 -73 202q0 173 117 336q130 181 298 181q127 0 195 -95l21 64q93 0 176 7l-161 -520q-24 -78 -24 -96q0 -54 54 -54q32 0 84 33q98 64 157 178q51 98 51 209q0 201 -154 343q-154 141 -378 141q-231 0 -397 -147
q-85 -76 -140 -184q-70 -139 -70 -281q0 -169 96 -319q91 -142 246 -214q122 -57 251 -57q276 0 481 252zM880 580l86 260q6 18 6 40q0 56 -33 89q-24 24 -60 24q-115 0 -204 -179q-41 -83 -66 -177t-25 -159q0 -49 26 -82q27 -32 69 -32q57 0 113 61q56 60 88 155z" />
    <glyph glyph-name="A" unicode="A" horiz-adv-x="1203" vert-adv-y="1502" 
d="M256 437l-88 -274q-7 -22 -7 -44q0 -67 119 -93v-26h-353v26q56 17 82 37q49 37 69 100l397 1216h262l390 -1216q37 -112 113 -137v-26h-501v26q65 22 65 77q0 27 -11 60l-88 274h-449zM287 520h391l-196 604z" />
    <glyph glyph-name="B" unicode="B" horiz-adv-x="1328" vert-adv-y="1502" 
d="M824 746q121 -17 179 -38q117 -41 186 -114q93 -98 93 -235q0 -121 -74 -207q-88 -104 -222 -130q-110 -22 -252 -22h-659v29q40 17 56 37q26 32 26 98v1037q0 66 -26 99q-16 19 -56 36v29h197q277 15 324 15q204 0 363 -44q128 -36 200 -118q56 -64 56 -167
q0 -149 -145 -226q-80 -43 -246 -79zM491 770h94q329 0 329 282q0 124 -74 201q-71 74 -210 74q-65 0 -100 -21q-39 -25 -39 -100v-436zM491 702v-535q0 -71 42 -94q38 -21 106 -21q84 0 139 23q61 25 103 85q69 100 69 224q0 113 -55 196q-81 122 -301 122h-103z" />
    <glyph glyph-name="C" unicode="C" horiz-adv-x="1221" vert-adv-y="1502" 
d="M1174 265l44 -35q-70 -77 -132 -126q-176 -138 -387 -138q-195 0 -361 116q-284 199 -284 586q0 200 83 371q82 170 251 270q155 91 345 91q119 0 225 -32q80 -24 189 -67l-56 -268h-46q-28 123 -110 202q-101 97 -221 97q-91 0 -171 -62q-102 -77 -150 -247
q-30 -104 -30 -232q0 -133 34 -261q46 -177 140 -291q117 -141 289 -141q131 0 249 82q37 26 99 85z" />
    <glyph glyph-name="D" unicode="D" horiz-adv-x="1470" vert-adv-y="1502" 
d="M74 1365h193q23 -2 161 9q125 9 220 9q194 0 365 -70q185 -76 290 -244q113 -182 113 -416q0 -202 -89 -365q-71 -130 -214 -206q-155 -82 -385 -82h-654v30q40 16 56 36q26 33 26 99v1036q0 66 -26 99q-16 19 -56 36v29zM477 1195v-1030q0 -110 171 -110q184 0 284 106
q147 156 147 507q0 391 -182 558q-82 75 -213 96q-31 5 -60 5q-147 0 -147 -132z" />
    <glyph glyph-name="E" unicode="E" horiz-adv-x="1203" vert-adv-y="1502" 
d="M1102 0h-1027v29q40 17 56 36q26 33 26 99v1037q0 66 -26 99q-16 19 -56 36v29h1005l22 -261h-47q-82 208 -316 210h-112q-74 -1 -103 -25q-31 -23 -32 -89v-409h187q194 -3 213 140h42v-350h-42q-5 154 -214 151h-186v-550q2 -83 34 -103q36 -27 140 -28h101
q280 -1 366 247l44 -17z" />
    <glyph glyph-name="F" unicode="F" horiz-adv-x="1110" vert-adv-y="1502" 
d="M935 588h-44q-3 63 -33 94q-49 50 -175 51h-189v-563q0 -76 34 -108q23 -21 71 -33v-29h-523v29q41 17 56 37q26 33 26 98v1037q0 65 -26 98q-15 20 -56 37v29h994l26 -262h-46q-11 52 -53 102q-98 109 -264 109h-105q-83 -1 -107 -28q-27 -25 -27 -87v-405h188
q198 -1 209 149h44v-355z" />
    <glyph glyph-name="G" unicode="G" horiz-adv-x="1513" vert-adv-y="1502" 
d="M1450 101q-144 -48 -257 -80q-193 -55 -396 -55q-164 0 -318 58q-184 70 -299 229q-126 173 -126 403t127 414q109 158 290 246q171 83 353 83q150 0 315 -37q77 -17 202 -50l-57 -273h-49q-34 88 -63.5 131t-80.5 81q-123 90 -258 90q-191 0 -314 -164
q-67 -89 -102 -258q-27 -128 -27 -267q0 -321 125 -486q107 -141 292 -141q100 0 167 48q63 44 63 142v395q0 66 -26 98q-16 20 -56 37v29h493v-29q-40 -17 -56 -37q-26 -32 -26 -98v-371q0 -57 30 -82q16 -13 54 -21v-35z" />
    <glyph glyph-name="H" unicode="H" horiz-adv-x="1465" vert-adv-y="1502" 
d="M491 683v-518q0 -67 26 -99q15 -20 55 -37v-29h-498v29q41 17 56 37q26 33 26 99v1036q0 65 -26 99q-15 19 -56 36v29h498v-29q-40 -17 -55 -36q-26 -33 -26 -99v-431h481v431q-1 66 -26 99q-16 19 -56 36v29h498v-29q-40 -17 -55 -36q-25 -33 -26 -99v-1036
q1 -67 26 -99q15 -20 55 -37v-29h-498v29q40 17 56 37q26 32 26 99v518h-481z" />
    <glyph glyph-name="I" unicode="I" horiz-adv-x="678" vert-adv-y="1502" 
d="M88 1336v29h500v-29q-40 -17 -55 -36q-25 -32 -26 -99v-1037q1 -66 26 -98q15 -20 55 -37v-29h-500v29q41 17 56 37q26 33 26 98v1037q0 65 -26 99q-15 19 -56 36z" />
    <glyph glyph-name="J" unicode="J" horiz-adv-x="646" vert-adv-y="1502" 
d="M73 1365h497v-29q-40 -17 -55 -36q-26 -33 -26 -99v-1315q0 -180 -112 -276q-102 -87 -270 -87q-134 0 -213 46q-28 17 -45.5 46t-17.5 59q0 43 31 75q34 34 80 34q48 0 79 -34q26 -29 32 -68l6 -45q4 -27 22 -41q13 -11 28 -11q46 0 46 81v1536q0 66 -26 99
q-16 19 -56 36v29z" />
    <glyph glyph-name="K" unicode="K" horiz-adv-x="1352" vert-adv-y="1502" 
d="M799 877l453 -714q68 -110 139 -137v-26h-542v26q67 19 67 65q0 29 -25 72l-287 482l-111 -138v-343q0 -66 26 -98q16 -20 56 -37v-29h-501v29q40 17 56 37q26 32 26 98v1037q0 66 -26 99q-16 19 -56 36v29h501v-29q-40 -17 -56 -36q-26 -33 -26 -99v-562l460 562
q34 41 34 70q0 18 -11 30q-19 22 -88 36v28h361v-28q-97 -31 -185 -136z" />
    <glyph glyph-name="L" unicode="L" horiz-adv-x="1084" vert-adv-y="1502" 
d="M1041 0h-968v29q40 16 56 36q26 33 26 99v1037q0 66 -26 99q-16 19 -56 36v29h502v-29q-41 -17 -56 -36q-26 -33 -26 -99v-1026q1 -74 28 -95q26 -28 132 -29h57q253 8 353 249l45 -18z" />
    <glyph glyph-name="M" unicode="M" horiz-adv-x="1675" vert-adv-y="1502" 
d="M782 0h-112l-338 1128l-131 -959q-2 -13 -2 -27q0 -58 32 -84q23 -18 93 -35v-23h-342v23q115 29 131 137l146 1040q1 9 1 22q0 50 -29 79q-22 23 -73 36v28h429l253 -837l234 837h421v-28q-48 -15 -68 -37q-25 -27 -25 -73q0 -13 2 -27l148 -1040q17 -109 101 -137v-23
h-497v23q75 27 75 104q0 15 -2 33l-132 968z" />
    <glyph glyph-name="N" unicode="N" horiz-adv-x="1451" vert-adv-y="1502" 
d="M1273 0h-287l-722 1092v-922q0 -76 39 -109q26 -21 75 -32v-29h-315v29q50 11 76 32q38 33 39 109v1025q-1 76 -39 109q-26 21 -76 32v29h415l706 -1062v892q-1 76 -39 109q-26 21 -76 32v29h318v-29q-49 -11 -75 -32q-39 -33 -39 -109v-1195z" />
    <glyph glyph-name="O" unicode="O" horiz-adv-x="1493" vert-adv-y="1502" 
d="M755 1399q234 0 427 -154q139 -109 203 -274q53 -136 53 -290q0 -271 -151 -459q-114 -143 -297 -211q-120 -45 -244 -45q-243 0 -437 152q-140 109 -203 277q-52 138 -52 295q0 259 151 451q114 145 298 214q118 44 252 44zM739 1343q-90 0 -156 -58
q-191 -168 -191 -603q0 -194 46 -366q39 -146 145 -236q69 -58 169 -58q94 0 161 58q103 92 141 236q46 176 46 375q0 189 -46 355q-41 150 -145 239q-68 58 -170 58z" />
    <glyph glyph-name="P" unicode="P" horiz-adv-x="1264" vert-adv-y="1502" 
d="M489 612v-442q0 -76 34 -108q23 -21 71 -33v-29h-520v29q40 17 56 37q26 32 26 98v1037q0 66 -26 99q-16 19 -56 36v29h204l420 16q342 0 498 -178q72 -82 72 -208q0 -160 -115 -258q-152 -129 -509 -129q-59 0 -155 4zM489 667q53 -2 80 -2q184 0 274 61q98 66 98 247
q0 211 -131 296q-87 56 -200 56q-53 0 -82 -21q-39 -27 -39 -119v-518z" />
    <glyph glyph-name="Q" unicode="Q" horiz-adv-x="1492" vert-adv-y="1502" 
d="M1067 37q18 -21 38 -43q67 -78 113 -99q47 -22 89 -22q49 0 109 39l39 -36q-70 -46 -112 -66q-72 -33 -157 -33q-130 0 -224 75q-48 38 -100 125q-76 -11 -125 -11q-116 0 -235 45q-183 70 -297 212q-151 188 -151 458q0 269 152 460q115 146 297 214q118 44 244 44
q245 0 436 -153q137 -110 202 -275q53 -135 53 -286q0 -259 -151 -464q-81 -110 -220 -184zM960 146q48 64 72 114q68 143 68 419q0 438 -190 606q-66 58 -158 58q-174 0 -273 -192q-47 -90 -70 -252q-16 -108 -16 -222q0 -192 45 -362q38 -146 145 -236q69 -58 167 -58
q32 0 79 14q-46 79 -82 127q-51 67 -103 67q-19 0 -55 -12l-21 49q81 35 134 35q81 0 174 -75q31 -25 84 -80z" />
    <glyph glyph-name="R" unicode="R" horiz-adv-x="1338" vert-adv-y="1502" 
d="M1336 -93v-44q-264 98 -435 263q-118 116 -180 256q-36 81 -84 249q-39 -4 -61 -4q-28 0 -83 7v-470q0 -66 26 -98q16 -20 56 -37v-29h-500v29q40 17 56 37q26 32 26 98v1037q0 66 -26 99q-16 19 -56 36v29h158q23 -2 181 8q166 10 288 10q290 0 434 -104
q142 -102 142 -274q0 -157 -124 -259q-60 -51 -204 -95q94 -317 208 -523q74 -127 122 -173q19 -19 56 -48zM493 698q65 -6 101 -6q351 0 351 314q0 154 -115 248q-89 72 -197 72q-64 0 -99 -27q-41 -30 -41 -117v-484z" />
    <glyph glyph-name="S" unicode="S" horiz-adv-x="1137" vert-adv-y="1502" 
d="M960 1011h-50q-14 134 -91 219q-94 106 -240 106q-99 0 -164 -54q-74 -61 -74 -165q0 -124 113 -206q63 -46 234 -113q225 -88 302 -154q106 -90 106 -253q0 -204 -170 -325q-140 -100 -334 -100q-185 0 -374 72q-72 27 -176 87l60 292l53 -7q0 -150 81 -249
q63 -75 174 -108q65 -20 130 -20q91 0 154 41q101 66 101 189q0 102 -87 179q-65 57 -243 133q-195 82 -267 139q-131 104 -131 287q0 144 87 245q131 153 398 153q148 0 289 -50q56 -19 172 -70z" />
    <glyph glyph-name="T" unicode="T" horiz-adv-x="1287" vert-adv-y="1502" 
d="M1313 1067l-49 -8q-128 224 -328 224q-69 0 -96 -26q-26 -26 -26 -86v-1007q0 -66 26 -98q15 -20 56 -37v-29h-499v29q40 17 56 37q26 32 26 98v1018q0 53 -29 79q-25 23 -89 23q-136 0 -233 -81q-60 -50 -108 -144l-47 8l76 298h1189z" />
    <glyph glyph-name="U" unicode="U" horiz-adv-x="1401" vert-adv-y="1502" 
d="M67 1365h499v-29q-40 -17 -56 -36q-26 -33 -26 -99v-802q0 -125 15 -177q54 -191 302 -191q172 0 273 95q105 99 105 298v771q0 76 -39 109q-26 21 -76 32v29h316v-29q-50 -11 -76 -32q-39 -33 -39 -109v-746q0 -231 -107 -345q-129 -138 -389 -138q-276 0 -454 106
q-166 100 -166 342v787q0 65 -26 99q-15 19 -56 36v29z" />
    <glyph glyph-name="V" unicode="V" horiz-adv-x="1201" vert-adv-y="1502" 
d="M727 0h-261l-403 1201q-37 109 -112 137v27h498v-27q-62 -22 -62 -75q0 -23 13 -62l319 -970l305 970q7 22 7 44q0 36 -25 57q-26 22 -92 36v27h342v-27q-106 -28 -143 -137z" />
    <glyph glyph-name="W" unicode="W" horiz-adv-x="1848" vert-adv-y="1502" 
d="M1387 0h-229l-212 707l-212 -707h-227l-445 1201q-42 112 -111 136v28h511v-28q-63 -22 -63 -73q0 -27 13 -63l327 -909l161 560l-105 349q-34 109 -104 136v28h499v-28q-63 -25 -63 -79q0 -26 9 -57l260 -903l284 903q8 24 8 46q0 47 -39 69q-17 9 -58 21v28h312v-28
q-94 -32 -129 -136z" />
    <glyph glyph-name="X" unicode="X" horiz-adv-x="1293" vert-adv-y="1502" 
d="M771 794l419 -627q73 -108 141 -137v-30h-565v30q75 18 75 65q0 28 -29 72l-256 386l-266 -386q-31 -46 -31 -80q0 -40 67 -57v-30h-324v30q104 24 182 137l321 462l-379 572q-72 110 -133 137v27h560v-27q-73 -18 -73 -65q0 -30 27 -72l213 -327l221 327q24 36 24 64
q0 51 -93 73v27h325v-27q-76 -27 -151 -137z" />
    <glyph glyph-name="Y" unicode="Y" horiz-adv-x="1203" vert-adv-y="1502" 
d="M771 563v-399q0 -66 26 -98q16 -20 56 -37v-29h-497v29q40 17 55 37q26 33 26 98v399l-352 639q-63 113 -134 135v28h560v-28q-79 -21 -79 -71q0 -27 20 -64l287 -529l286 529q19 34 19 63q0 51 -87 72v28h300v-28q-83 -31 -139 -135z" />
    <glyph glyph-name="Z" unicode="Z" horiz-adv-x="1193" vert-adv-y="1502" 
d="M1095 0h-1083v78l741 1203h-176q-177 0 -300 -84q-75 -54 -124 -141l-50 9l77 300h989l-786 -1278h285q191 2 305 75q76 50 141 148l45 -19z" />
    <glyph glyph-name="bracketleft" unicode="[" vert-adv-y="1502" 
d="M801 -287v-49h-483v1720h483v-49h-25q-99 -2 -127 -17q-30 -15 -38 -52q-3 -13 -3 -94v-1296q0 -84 6 -103q12 -42 66 -53q33 -7 96 -7h25z" />
    <glyph glyph-name="backslash" unicode="\" horiz-adv-x="776" vert-adv-y="1502" 
d="M559 -287l-459 1652h166l461 -1652h-168z" />
    <glyph glyph-name="bracketright" unicode="]" vert-adv-y="1502" 
d="M223 -336v49h25q99 2 127 17q30 15 38 52q3 13 3 94v1296q0 84 -6 103q-12 42 -67 53q-29 6 -95 7h-25v49h483v-1720h-483z" />
    <glyph glyph-name="asciicircum" unicode="^" vert-adv-y="1502" 
d="M1089 566h-144l-300 480l-328 -480h-382l597 868h18z" />
    <glyph glyph-name="underscore" unicode="_" vert-adv-y="1502" 
d="M10 -189h1004v-170h-1004v170z" />
    <glyph glyph-name="grave" unicode="`" vert-adv-y="1502" 
d="M536 1364l85 -289h-10l-372 289h297z" />
    <glyph glyph-name="glyph68" unicode="a" horiz-adv-x="987" vert-adv-y="1502" 
d="M969 55q-58 -44 -100 -60t-100 -16q-110 0 -165 65q-22 24 -33 74q-68 -55 -99 -75q-94 -64 -206 -64q-113 0 -185 63q-66 59 -66 150q0 142 193 247q106 57 363 157v213q0 97 -85 97q-38 0 -67 -25q-16 -14 -29 -59q-46 -160 -155 -160q-60 0 -98 42q-22 24 -22 59
q0 78 87 129q123 71 322 71q171 0 259 -61q86 -58 86 -169v-614q0 -50 31 -50q17 0 35 21zM571 179v351q-143 -59 -195 -107q-67 -63 -67 -167q0 -78 44 -119q26 -24 63 -24q59 0 155 66z" />
    <glyph glyph-name="b" unicode="b" horiz-adv-x="1061" vert-adv-y="1502" 
d="M38 35l-22 38q47 36 68 70q26 41 27 191v818q0 79 -55 91v45q133 31 171 47q35 11 141 63h43v-568q145 133 285 133q90 0 166 -64q156 -131 156 -395q0 -192 -82 -328q-65 -108 -196 -160q-93 -37 -197 -37q-107 0 -220 41q-99 35 -119.5 41t-45.5 6q-40 0 -120 -32z
M411 767v-569q0 -91 42 -127q33 -29 78 -29q61 0 98 47q86 110 86 382q0 243 -86 332q-32 33 -83 33q-41 0 -73 -20q-29 -18 -62 -49z" />
    <glyph glyph-name="c" unicode="c" horiz-adv-x="860" vert-adv-y="1502" 
d="M841 208q-78 -108 -150 -155q-115 -74 -244 -74q-163 0 -277 122q-126 134 -126 345q0 137 55 259q62 136 180 204q93 54 208 54q149 0 247 -83q65 -56 65 -132q0 -60 -50 -90q-29 -17 -65 -17q-55 0 -92 47q-22 29 -30 109q-7 69 -24 88q-17 20 -42 20q-40 0 -77 -38
q-53 -55 -77 -187q-11 -63 -11 -136q0 -213 103 -335q62 -72 167 -72q89 0 154 52q18 16 45 43z" />
    <glyph glyph-name="d" unicode="d" horiz-adv-x="1073" vert-adv-y="1502" 
d="M656 0v116q-59 -62 -100 -88q-78 -49 -166 -49q-105 0 -194 67q-152 114 -152 397q0 254 129 401q105 119 261 119q82 0 145 -32q27 -15 77 -54v275q2 79 -53 91v45q132 31 170 47q35 11 140 63h44v-1258q0 -51 14 -76q10 -19 42 -37v-27h-357zM656 183v523q0 81 -35 127
q-38 48 -96 48q-73 0 -116 -81q-27 -52 -44 -164q-14 -87 -14 -179q0 -193 51 -275q46 -75 120 -75q53 0 134 76z" />
    <glyph glyph-name="e" unicode="e" horiz-adv-x="904" vert-adv-y="1502" 
d="M868 211q-78 -87 -146 -142q-115 -91 -269 -91q-157 0 -273 113q-77 74 -112 199q-24 87 -24 182q0 238 142 374q124 117 283 117q147 0 258 -99q103 -91 124 -240q5 -38 5 -102v-42h-511q12 -188 94 -261q74 -66 180 -66q63 0 113 23q41 20 98 59zM338 551h183
q58 0 75 22q24 33 24 112q0 98 -38 165q-31 55 -95 55q-150 0 -149 -354z" />
    <glyph glyph-name="f" unicode="f" horiz-adv-x="581" vert-adv-y="1502" 
d="M590 861h-170v-721q0 -51 14 -76q10 -19 42 -37v-27h-412v27q32 18 42 37q13 24 13 76v721h-103v70h103v151q0 110 13 153q20 68 92 114q77 50 176 50q109 0 167 -44q44 -34 44 -83q0 -38 -24 -63q-27 -28 -73 -28q-54 0 -90 41q-13 14 -35 71q-17 44 -44 44
q-20 0 -33 -17.5t-13 -42.5q0 -39 27 -81q9 -13 68 -77q26 -31 26 -102v-86h170v-70z" />
    <glyph glyph-name="g" unicode="g" horiz-adv-x="956" vert-adv-y="1502" 
d="M776 843q100 120 191 120q39 0 63 -31q19 -24 19 -58q0 -45 -29 -70q-22 -19 -54 -19q-28 0 -70 22q-32 17 -43 17q-17 0 -40 -20q47 -79 47 -157q0 -107 -70 -196q-110 -138 -331 -138q-42 0 -95 7q-78 -40 -78 -88q0 -39 51 -59q27 -10 392 -73q248 -44 248 -241
q0 -166 -156 -254q-148 -83 -359 -83q-253 0 -398 102q-64 45 -64 116q0 70 79 136q66 54 169 91q-88 24 -144 70q-50 40 -50 86q0 81 101 142q51 31 140 68q-93 28 -145 74q-105 91 -105 225q0 171 160 266q109 65 256 65q124 0 218 -49q41 -22 97 -71zM456 907
q-40 0 -71 -30q-25 -24 -37 -56q-34 -84 -34 -185q0 -98 34 -184q32 -82 107 -82q139 0 139 290q0 142 -50 202q-38 45 -88 45zM331 -56q-55 -34 -82 -58q-62 -55 -62 -118q0 -48 30 -86q26 -35 62 -53q87 -43 194 -43q162 0 225 73q39 45 39 102q0 74 -64 107
q-44 24 -162 41q-104 14 -180 35z" />
    <glyph glyph-name="h" unicode="h" horiz-adv-x="1066" vert-adv-y="1502" 
d="M414 728v-588q0 -52 13 -76q11 -19 42 -37v-27h-412v27q32 18 42 37q14 25 14 76v1012q0 80 -56 91v45q134 30 173 47q34 11 140 63h44v-602q227 167 365 167q84 0 132 -52q39 -41 39 -136v-635q0 -51 14 -76q10 -19 42 -37v-27h-409v27q32 18 42 37q14 25 14 76v576
q0 96 -69 96q-59 0 -170 -84z" />
    <glyph glyph-name="i" unicode="i" horiz-adv-x="546" vert-adv-y="1502" 
d="M65 815v45q134 31 173 47q34 11 140 62h43v-829q0 -51 14 -76q10 -19 43 -37v-27h-412v27q31 18 42 37q13 24 13 76v584q0 81 -56 91zM258 1383q89 0 130 -42q33 -32 33 -76q0 -51 -42 -86q-41 -33 -125 -33q-91 0 -132 41q-34 34 -34 81q0 49 41 82q43 33 129 33z" />
    <glyph glyph-name="j" unicode="j" horiz-adv-x="524" vert-adv-y="1502" 
d="M416 969v-1075q0 -156 -14 -209q-20 -71 -83 -114q-72 -50 -207 -50q-133 0 -198 50q-35 28 -35 74q0 35 22 61q29 36 82 36q59 0 91 -49q11 -16 31 -66q19 -48 47 -48q43 0 43 51q0 29 -48 128q-31 67 -32 157v809q0 79 -54 91v45q132 31 171 47q34 11 139 62h45z
M258 1383q88 0 130 -42q33 -33 33 -76q0 -51 -42 -86q-41 -33 -125 -33q-91 0 -132 41q-34 34 -34 81q0 50 41 82q43 33 129 33z" />
    <glyph glyph-name="k" unicode="k" horiz-adv-x="1037" vert-adv-y="1502" 
d="M692 659l287 -519q47 -83 101 -109v-31h-462v31q46 19 46 50q0 25 -18 59l-162 311l-69 -73v-238q0 -51 14 -76q10 -19 41 -37v-27h-412v27q32 18 42 37q14 25 14 76v1012q0 37 -9 58q-13 25 -48 33v45q135 30 174 47q34 11 140 63h44v-928l303 325q24 26 24 49
q0 14 -8 24q-17 20 -88 36v27h347v-27q-96 -27 -175 -109z" />
    <glyph glyph-name="l" unicode="l" horiz-adv-x="525" vert-adv-y="1502" 
d="M57 1243v45q133 31 172 47q34 11 140 63h44v-1258q0 -52 14 -76q10 -19 42 -37v-27h-413v27q32 18 42 37q14 24 14 76v1012q1 79 -55 91z" />
    <glyph glyph-name="m" unicode="m" horiz-adv-x="1561" vert-adv-y="1502" 
d="M930 815q116 71 164 96q102 52 178 52q73 0 123 -40q30 -24 40 -57q11 -35 11 -88v-638q0 -51 14 -76q10 -19 42 -37v-27h-409v27q31 18 42 37q13 25 13 76v567q0 103 -72 103q-27 0 -146 -58v-612q0 -52 14 -76q10 -19 42 -37v-27h-409v27q32 18 42 37q14 24 14 76v571
q0 96 -71 96q-31 0 -149 -62v-605q0 -51 14 -76q10 -19 42 -37v-27h-409v27q32 18 42 37q14 25 14 76v585q0 37 -10 58q-12 24 -46 33v44q134 31 173 47q34 11 140 63h40v-166q110 73 158 101q101 58 185 58q83 0 130 -49q29 -31 44 -99z" />
    <glyph glyph-name="n" unicode="n" horiz-adv-x="1069" vert-adv-y="1502" 
d="M416 794q107 73 155 101q117 67 203 67q180 0 180 -181v-641q0 -51 14 -76q10 -19 42 -37v-27h-409v27q32 18 42 37q13 25 13 76v571q0 67 -21 86q-17 17 -44 17q-56 0 -175 -78v-596q0 -51 14 -76q10 -19 42 -37v-27h-413v27q32 18 42 37q14 24 14 76v584q0 79 -54 91
v45q132 31 171 47q34 11 140 62h44v-175z" />
    <glyph glyph-name="o" unicode="o" horiz-adv-x="1058" vert-adv-y="1502" 
d="M534 963q158 0 288 -89q192 -131 192 -407q0 -275 -192 -402q-130 -86 -293 -86t-293 86q-192 127 -192 401q0 278 192 408q131 89 298 89zM527 907q-180 0 -180 -442q0 -430 182 -430t182 420q0 269 -63 378q-42 74 -121 74z" />
    <glyph glyph-name="p" unicode="p" horiz-adv-x="1068" vert-adv-y="1502" 
d="M410 66v-363q0 -52 14 -76q10 -19 42 -37v-27h-413v27q32 18 42 37q14 24 14 76v1021q0 80 -56 91v45q134 31 173 47q34 11 140 62h44v-143q63 59 104 85q85 52 174 52q139 0 233 -114q54 -65 82 -179q21 -82 21 -170q0 -169 -69 -313q-46 -93 -137 -153
q-85 -56 -188 -56q-109 0 -220 88zM410 759v-531q0 -83 48 -128q39 -36 89 -36q74 0 113 79q58 119 58 334q0 133 -36 243q-37 112 -133 112q-53 0 -139 -73z" />
    <glyph glyph-name="q" unicode="q" horiz-adv-x="1046" vert-adv-y="1502" 
d="M951 969v-1266q0 -51 14 -76q10 -19 41 -37v-27h-412v27q32 18 42 37q14 24 14 76v399q-74 -62 -120 -85q-76 -38 -157 -38q-140 0 -227 108q-52 65 -80 176q-22 83 -22 172q0 156 62 289q68 146 230 206q88 33 186 33q171 0 292 -82l47 88h90zM650 156v595q0 73 -23 106
q-34 48 -96 48q-43 0 -72 -27q-37 -34 -56 -85q-62 -160 -62 -343q0 -123 32 -231q20 -65 66 -103q30 -26 75 -26q55 0 136 66z" />
    <glyph glyph-name="r" unicode="r" horiz-adv-x="723" vert-adv-y="1502" 
d="M417 738v-598q0 -52 14 -76q10 -19 42 -37v-27h-413v27q32 18 42 37q14 25 14 76v584q0 80 -56 91v45q134 31 173 47q34 11 140 62h44v-162q103 155 224 155q54 0 93 -37q32 -30 32 -78q0 -52 -35 -85q-32 -30 -79 -30q-37 0 -56 12l-44 30q-22 15 -44 15q-51 0 -91 -51z
" />
    <glyph glyph-name="s" unicode="s" horiz-adv-x="831" vert-adv-y="1502" 
d="M686 664l-42 14q3 26 3 39q0 71 -54 129q-56 59 -147 59q-62 0 -101 -35q-41 -37 -41 -89q0 -94 167 -178q147 -74 189 -99.5t74 -60.5q71 -75 71 -166q0 -138 -123 -224q-105 -74 -260 -74q-111 0 -202 35q-79 31 -188 91l62 217l41 -13q-2 -22 -2 -34q0 -102 76 -171
q66 -59 154 -59q83 0 127 55q28 34 28 79q0 59 -50 103q-30 25 -64 43l-131 68q-109 57 -167 138q-47 65 -47 143q0 153 138 231q103 58 230 58q99 0 189 -34q58 -21 130 -55z" />
    <glyph glyph-name="t" unicode="t" horiz-adv-x="597" vert-adv-y="1502" 
d="M574 865h-151v-708q0 -80 51 -80q40 0 77 47l39 -30q-53 -57 -96 -80q-67 -35 -149 -35q-101 0 -171 51q-52 38 -52 130v705h-112v66q242 96 365 351h48v-351h151v-66z" />
    <glyph glyph-name="u" unicode="u" horiz-adv-x="1066" vert-adv-y="1502" 
d="M650 0v148q-87 -66 -139 -97q-124 -72 -226 -72q-82 0 -133 54q-39 42 -39 139v552q0 79 -55 91v45q133 31 171 47q35 11 141 62h44v-739q0 -100 66 -100t170 88v506q0 79 -54 91v45q132 31 171 47q34 11 140 62h44v-829q0 -52 13 -76q11 -19 42 -37v-27h-356z" />
    <glyph glyph-name="v" unicode="v" horiz-adv-x="854" vert-adv-y="1502" 
d="M551 0h-244l-262 794q-29 83 -98 110v27h441v-27q-52 -23 -52 -61q0 -22 9 -49l195 -597l184 597q5 18 5 34q0 35 -33 53q-18 10 -66 23v27h301v-27q-58 -16 -84 -36q-32 -25 -51 -83z" />
    <glyph glyph-name="w" unicode="w" horiz-adv-x="1361" vert-adv-y="1502" 
d="M1034 0h-224l-125 437l-142 -437h-227l-274 795q-30 84 -95 109v27h446v-27q-55 -23 -55 -62q0 -22 8 -47l194 -595l111 356l-66 239q-11 43 -36 72q-16 19 -55 37v27h432v-27q-55 -25 -55 -66q0 -21 6 -43l166 -595l188 591q6 20 6 38q0 33 -33 52q-17 10 -65 23v27h299
v-27q-60 -21 -82 -38q-34 -26 -50 -71z" />
    <glyph glyph-name="x" unicode="x" horiz-adv-x="925" vert-adv-y="1502" 
d="M581 577l250 -437q48 -83 124 -110v-30h-470v30q35 18 35 45q0 25 -22 65l-112 207l-148 -207q-20 -28 -20 -50q0 -39 93 -60v-30h-342v30q66 18 98 37q43 25 79 73l202 270l-218 384q-47 83 -116 110v27h466v-27q-40 -18 -40 -47q0 -25 20 -63l82 -151l109 151
q25 35 25 58q0 33 -70 52v27h291v-27q-94 -27 -157 -110z" />
    <glyph glyph-name="y" unicode="y" horiz-adv-x="815" vert-adv-y="1502" 
d="M387 0l-334 795q-20 47 -46 73q-21 20 -65 36v27h482v-27q-62 -22 -62 -62q0 -22 10 -47l164 -426l164 423q10 26 10 45q0 44 -90 67v27h280v-27q-53 -19 -75 -38q-32 -26 -50 -71l-419 -1061q-41 -103 -91 -147q-51 -45 -123 -45q-71 0 -114 44q-37 38 -37 87
q0 50 41 80q30 23 67 23q41 0 63 -21q10 -9 26 -34q19 -30 39 -30q34 0 61 66z" />
    <glyph glyph-name="z" unicode="z" horiz-adv-x="912" vert-adv-y="1502" 
d="M809 0h-810l539 878h-131q-237 1 -289 -194l-49 15l58 232h771v-32l-521 -846h141q243 6 321 211l46 -16z" />
    <glyph glyph-name="braceleft" unicode="{" vert-adv-y="1502" 
d="M214 525v55q65 5 98 28q27 18 38 49.5t11 91.5q0 46 -1 91q-3 107 -3 123q0 213 37 290q51 107 184 123q40 5 203 7l41 1v-56q-113 -2 -157 -53q-36 -45 -47 -135q-2 -25 -2 -140v-125q0 -114 -2 -140t-14 -53q-47 -103 -209 -126v-6q105 -13 164 -70q49 -49 55 -130
q2 -22 2 -137l1 -136q1 -156 8 -210q18 -102 89 -131q41 -16 112 -16v-56h-34q-161 3 -210 8q-113 10 -168 81q-57 71 -57 214q0 38 4 274q2 109 2 125q0 105 -60 140q-25 15 -85 19z" />
    <glyph glyph-name="bar" unicode="|" vert-adv-y="1502" 
d="M398 1365h228v-1706h-228v1706z" />
    <glyph glyph-name="braceright" unicode="}" vert-adv-y="1502" 
d="M810 580v-55q-67 -4 -95 -24q-51 -38 -51 -134q0 -23 5 -291q2 -82 2 -111q0 -214 -132 -270q-54 -23 -156 -28q-21 -1 -147 -3h-34v56q71 0 112 16q71 29 89 131q7 52 8 210l1 136q0 142 9 186q22 87 119 127q40 17 93 24v6q-108 16 -163 65q-47 41 -59 104
q-2 20 -2 150l-1 125q0 120 -5 159q-14 115 -90 151q-39 16 -111 18v56l41 -1q178 -3 221 -10q133 -22 175 -140q13 -38 21 -131q7 -81 7 -124q0 -13 -3 -114q-2 -48 -2 -111q0 -85 21 -117q33 -49 127 -56z" />
    <glyph glyph-name="asciitilde" unicode="~" horiz-adv-x="1365" vert-adv-y="1502" 
d="M1027 1502l51 -31q-44 -89 -114 -162q-68 -73 -159 -73q-40 0 -95 18q-31 10 -107 39q-62 23 -118 23q-59 0 -99 -36q-10 -9 -32 -32q-6 -6 -18 -19l-49 31q63 116 116 167q71 69 152 69q47 0 160 -40t162 -40q79 0 150 86z" />
    <glyph glyph-name="nbspace" unicode="&#xa0;" horiz-adv-x="614" vert-adv-y="1502" 
 />
    <glyph glyph-name="exclamdown" unicode="&#xa1;" horiz-adv-x="638" vert-adv-y="1502" 
d="M278 560h82q9 -159 91 -512q35 -157 35 -236q0 -109 -66 -176q-45 -45 -101 -45t-101 45q-66 67 -66 175q0 57 16 143q6 36 54 246q53 248 56 360zM320 1011q63 0 109 -46t46 -110q0 -65 -46 -111t-111 -46q-64 0 -110 46t-46 110q0 66 46 111q47 46 112 46z" />
    <glyph glyph-name="cent" unicode="&#xa2;" horiz-adv-x="1160" vert-adv-y="1502" 
d="M668 1293v-155q74 -10 124 -36q111 -60 111 -156q0 -36 -25 -63q-30 -33 -78 -33q-47 0 -72 28q-26 30 -34 75q-3 14 -11 68q-9 67 -57 67q-47 0 -86 -61q-59 -94 -59 -258q0 -162 55 -258q66 -115 191 -115q55 0 92 18t84 68l36 -21q-75 -103 -139 -144
q-45 -28 -132 -54v-169h-93v160q-83 8 -130 30q-100 47 -159 141q-66 106 -66 248q0 212 133 355q60 65 138 90q29 10 84 20v155h93z" />
    <glyph glyph-name="sterling" unicode="&#xa3;" horiz-adv-x="1195" vert-adv-y="1502" 
d="M306 86h345q165 0 247 35q120 52 206 184l50 -21l-74 -284h-1049q184 217 199 677h-150v87h150q16 237 126 410q144 225 437 225q172 0 288 -72q40 -25 65 -68q19 -32 19 -64q0 -47 -37 -83q-35 -34 -89 -34q-70 0 -109 55q-20 28 -60 130q-29 72 -99 72q-59 0 -101 -52
q-51 -63 -69 -180q-9 -61 -27 -339h238v-87h-244q-14 -188 -76 -325q-65 -139 -186 -266z" />
    <glyph glyph-name="currency" unicode="&#xa4;" horiz-adv-x="1365" vert-adv-y="1502" 
d="M50 183l203 203q-26 48 -40 78q-51 110 -51 228q0 152 90 323l-203 203l114 114l205 -205q59 39 119 57q102 32 190 32q150 0 313 -93l213 212l114 -114l-215 -215q86 -156 86 -305q0 -155 -88 -305l212 -212l-114 -114l-206 206q-161 -93 -313 -93q-100 0 -197 34
q-44 16 -112 58l-206 -206zM677 961q-105 0 -183 -77q-78 -76 -78 -184t77 -184q78 -77 188 -77q109 0 186 78q76 76 76 182q0 110 -76 184q-79 78 -190 78z" />
    <glyph glyph-name="yen" unicode="&#xa5;" horiz-adv-x="1203" vert-adv-y="1502" 
d="M757 458h301v-93h-301v-200q1 -67 24 -99q14 -20 52 -37v-29h-458v29q37 17 51 37q23 33 24 99v200h-306v86h306v112l-48 95h-258v90h212l-230 454q-59 113 -124 135v28h516v-28q-73 -21 -73 -70q0 -27 19 -65l263 -529l265 529q17 34 17 62q0 52 -80 73v28h277v-28
q-77 -30 -129 -135l-227 -454h208v-90h-253l-48 -95v-105z" />
    <glyph glyph-name="brokenbar" unicode="&#xa6;" vert-adv-y="1502" 
d="M398 1365h228v-735h-228v735zM398 314h228v-655h-228v655z" />
    <glyph glyph-name="section" unicode="&#xa7;" horiz-adv-x="1128" vert-adv-y="1502" 
d="M950 1311l-57 -218h-34q-17 89 -57 142q-72 96 -201 96q-99 0 -157 -55q-53 -50 -53 -124q0 -61 29 -96q34 -41 111 -77q48 -21 130 -59q224 -102 287 -164q86 -84 86 -174q0 -84 -60 -187q-39 -67 -118 -138q51 -44 73 -79q46 -72 46 -171q0 -164 -116 -277
q-69 -68 -178 -102q-78 -24 -161 -24q-219 0 -389 97l66 239h33q45 -122 83 -169q34 -42 93 -71q61 -29 122 -29q111 0 183 80q61 68 61 156q0 83 -66 136q-38 30 -152 73q-199 75 -297 128q-67 36 -113 97q-53 69 -53 151q0 182 200 344q-106 93 -106 223q0 145 118 241
q117 95 301 95q177 0 346 -84zM341 795q-82 -68 -82 -160q0 -78 89 -134q56 -35 222 -104q175 -72 234 -103q63 71 63 149q0 69 -62 117q-42 32 -82 50l-133 58q-140 65 -175 82q-35 18 -74 45z" />
    <glyph glyph-name="dieresis" unicode="&#xa8;" vert-adv-y="1502" 
d="M286 1373q66 0 111 -41q37 -34 37 -84q0 -62 -51 -100q-43 -32 -105 -32q-63 0 -102 35q-42 37 -42 93q0 58 48 97q41 32 104 32zM741 1373q66 0 111 -41q37 -34 37 -84q0 -62 -51 -100q-43 -32 -104 -32q-64 0 -103 35q-42 37 -42 93q0 58 49 97q40 32 103 32z" />
    <glyph glyph-name="copyright" unicode="&#xa9;" horiz-adv-x="1646" vert-adv-y="1502" 
d="M832 1392q191 0 362 -105q171 -104 262 -282q77 -152 77 -322q0 -200 -105 -371q-104 -170 -282 -261q-153 -78 -323 -78q-199 0 -371 105q-170 104 -261 283q-78 152 -78 320q0 201 104 373q103 168 284 261q151 77 331 77zM815 1300q-165 0 -315 -91
q-148 -91 -227 -246q-68 -133 -68 -280q0 -174 91 -323q91 -148 247 -227q133 -68 280 -68q173 0 323 91q148 91 228 246q67 132 67 279q0 175 -91 324q-89 147 -246 228q-132 67 -289 67zM1132 433l28 -21q-46 -47 -86 -76q-113 -83 -251 -83q-128 0 -235 69
q-185 121 -185 352q0 207 141 332q123 108 300 108q79 0 147 -19q52 -14 123 -41l-36 -161h-30q-18 74 -72 122q-65 58 -144 58q-89 0 -147 -70q-81 -98 -81 -255q0 -112 43 -216q82 -200 260 -200q112 0 225 101z" />
    <glyph glyph-name="ordfeminine" unicode="&#xaa;" horiz-adv-x="648" vert-adv-y="1502" 
d="M630 585q-69 -51 -135 -51q-103 0 -128 76q-33 -26 -52 -38q-61 -38 -132 -38q-72 0 -119 38q-45 37 -45 95q0 87 125 151q65 34 220 91v121q0 50 -45 50q-38 0 -51 -45q-29 -98 -104 -98q-40 0 -67 26q-16 17 -16 40q0 51 59 83q79 42 202 42q223 0 223 -143v-362
q0 -22 11 -22q8 0 21 16zM364 662v193q-77 -31 -107 -58q-39 -35 -39 -94q0 -42 24 -64q14 -13 35 -13q32 0 87 36z" />
    <glyph glyph-name="guillemotleft" unicode="&#xab;" horiz-adv-x="770" vert-adv-y="1502" 
d="M419 131l-339 390l339 382v-57l-155 -325l155 -340v-50zM690 131l-339 390l339 382v-57l-155 -325l155 -340v-50z" />
    <glyph glyph-name="logicalnot" unicode="&#xac;" vert-adv-y="1502" 
d="M600 0v390h-542v156h909v-546h-367z" />
    <glyph glyph-name="sfthyphen" unicode="&#xad;" horiz-adv-x="467" vert-adv-y="1502" 
d="M0 465v148h467v-148h-467z" />
    <glyph glyph-name="registered" unicode="&#xae;" horiz-adv-x="1338" vert-adv-y="1502" 
d="M714 1392q191 0 362 -104q171 -105 262 -282q77 -152 77 -323q0 -200 -105 -371q-104 -170 -282 -261q-153 -78 -323 -78q-200 0 -371 105q-170 104 -261 283q-78 152 -78 321q0 201 104 372q103 168 283 261q151 77 332 77zM1070 183q-141 55 -238 141q-77 70 -117 154
q-24 49 -55 150q-28 -2 -40 -2q-17 0 -54 4v-282q0 -40 17 -60q10 -12 37 -21v-18h-325v18q51 17 53 81v622q-2 64 -53 81v18h102q14 -1 118 5q107 6 186 6q189 0 283 -62q93 -62 93 -165q0 -95 -81 -156q-39 -31 -132 -57q61 -191 135 -314q55 -87 99 -121q26 23 44 40
q181 182 181 438t-181 437t-437 181t-437 -180q-86 -87 -134 -201q-47 -114 -47 -237q0 -173 91 -323q91 -148 246 -227q132 -68 280 -68q196 0 366 118zM566 668q45 -3 67 -3q228 0 228 189q0 91 -75 148q-58 43 -128 43q-41 0 -65 -16q-27 -18 -27 -70v-291z" />
    <glyph glyph-name="overscore" unicode="&#xaf;" vert-adv-y="1502" 
d="M10 1744h1004v-171h-1004v171z" />
    <glyph glyph-name="degree" unicode="&#xb0;" horiz-adv-x="964" vert-adv-y="1502" 
d="M486 1341q57 0 114 -29q77 -40 111 -133q15 -39 15 -80q0 -120 -91 -193q-67 -54 -150 -54q-115 0 -192 91q-55 67 -55 157q0 120 93 190q67 51 155 51zM481 1209q-46 0 -79 -36q-32 -34 -32 -74q0 -55 41 -88q32 -27 75 -27q49 0 81 39q27 32 27 75q0 49 -40 86
q-27 25 -73 25z" />
    <glyph glyph-name="plusminus" unicode="&#xb1;" vert-adv-y="1502" 
d="M10 837h412v415h177v-415h415v-170h-415v-397h-177v397h-412v170zM10 189h1004v-170h-1004v170z" />
    <glyph glyph-name="twosuperior" unicode="&#xb2;" horiz-adv-x="811" vert-adv-y="1502" 
d="M650 546h-602v37q95 114 203 210q109 94 140 129q113 126 113 248q0 67 -30 119q-29 49 -80 49q-66 0 -78 -83q-9 -59 -26 -82q-26 -35 -86 -35q-66 0 -92 35q-15 20 -15 44q0 68 84 118q83 50 212 50q121 0 211 -43q125 -59 125 -200q0 -87 -64 -155q-32 -33 -59 -50
q-22 -14 -106 -57q-122 -66 -237 -178h219q95 1 143 28q28 16 58 54l39 -12z" />
    <glyph glyph-name="threesuperior" unicode="&#xb3;" horiz-adv-x="811" vert-adv-y="1502" 
d="M480 993l7 -1q77 -17 99 -26q137 -58 137 -182q0 -115 -98 -184q-103 -74 -259 -74q-145 0 -231 54q-65 41 -65 96q0 29 23 51q29 28 74 28q86 0 119 -114q10 -35 19 -47q17 -22 56 -22q46 0 78 28q60 53 60 173q0 185 -196 185q-11 0 -34 -1v37q71 8 112 25
q99 40 99 169q0 87 -45 129q-21 20 -56 20q-36 0 -54 -26q-10 -16 -16 -66q-11 -92 -107 -92q-54 0 -79 32q-15 18 -15 42q0 37 28 67q84 91 260 91q151 0 237 -64q65 -48 65 -131q0 -137 -218 -197z" />
    <glyph glyph-name="acute" unicode="&#xb4;" vert-adv-y="1502" 
d="M782 1363l-367 -288h-9l109 288h267z" />
    <glyph glyph-name="mu" unicode="&#xb5;" horiz-adv-x="1005" vert-adv-y="1502" 
d="M1062 112v-43l-288 -92q-8 -3 -15 -3q-40 0 -70 33q-21 25 -49 103q-47 -55 -75 -79q-73 -63 -169 -63q-112 0 -172 80q-21 28 -47 89q-1 -18 -1 -28q0 -71 26 -155q5 -17 46 -132q27 -76 27 -108q0 -41 -28 -74q-40 -46 -113 -46q-72 0 -116 41q-32 32 -32 80
q0 54 19 141q60 277 65 621v459h304v-589q0 -144 25 -196q10 -20 36 -35q21 -14 45 -14q61 0 139 97v737h302v-657q0 -123 25 -152q18 -22 62 -22q21 0 54 7z" />
    <glyph glyph-name="paragraph" unicode="&#xb6;" horiz-adv-x="1327" vert-adv-y="1502" 
d="M1186 1365v-70h-27q-70 0 -89 -13q-16 -12 -21 -47q-3 -14 -3 -85v-1155q1 -69 7 -80q10 -11 73 -11h35v-70h-283v1455h-135v-1455h-335v70h45q89 1 107 11q12 9 13 25q1 11 2 65v694q-71 -1 -75 -1q-131 0 -199 27q-99 40 -155 133q-45 76 -45 171q0 143 91 237
q84 86 218 96q39 3 197 3h579zM575 1295h-41q-46 0 -67 -7q-48 -16 -76 -91q-23 -64 -23 -164q0 -134 57 -209q35 -47 96 -47h54v518z" />
    <glyph glyph-name="middot" unicode="&#xb7;" horiz-adv-x="515" vert-adv-y="1502" 
d="M260 789q66 0 114 -50q43 -46 43 -109q0 -69 -50 -116q-46 -44 -109 -44q-69 0 -116 50q-44 47 -44 109q0 70 50 116q48 44 112 44z" />
    <glyph glyph-name="cedilla" unicode="&#xb8;" vert-adv-y="1502" 
d="M448 0h68l-14 -103q19 2 30 2q37 0 71 -19q65 -36 65 -110q0 -73 -57 -121q-46 -39 -117 -39q-62 0 -139 41l13 20q54 -16 85 -16q30 0 55 14q54 31 54 98q0 40 -23 63q-24 23 -62 23q-18 0 -48 -5z" />
    <glyph glyph-name="onesuperior" unicode="&#xb9;" horiz-adv-x="811" vert-adv-y="1502" 
d="M521 1373v-724q2 -62 53 -77v-26h-336v26q53 15 54 77v564q-1 54 -54 56v36q113 28 212 68h71z" />
    <glyph glyph-name="ordmasculine" unicode="&#xba;" horiz-adv-x="692" vert-adv-y="1502" 
d="M349 1128q98 0 183 -53q123 -78 123 -246t-124 -244q-84 -51 -185 -51t-186 51q-123 76 -123 243q0 168 123 247q84 53 189 53zM345 1081q-104 0 -104 -253q0 -247 105 -247t105 241q0 259 -106 259z" />
    <glyph glyph-name="guillemotright" unicode="&#xbb;" horiz-adv-x="770" vert-adv-y="1502" 
d="M351 131v50l155 340l-155 325v57l339 -382zM80 131v50l155 340l-155 325v57l339 -382z" />
    <glyph glyph-name="onequarter" unicode="&#xbc;" horiz-adv-x="1883" vert-adv-y="1502" 
d="M521 1373v-724q2 -62 53 -77v-26h-336v26q53 15 54 77v564q-1 54 -54 56v36q113 28 212 68h71zM751 0h-135l518 1365h133zM1830 193h-115v-86q0 -62 53 -77v-30h-336v30q50 14 52 77v86h-359v50l394 584h196v-531h115v-103zM1238 296h246v366z" />
    <glyph glyph-name="onehalf" unicode="&#xbd;" horiz-adv-x="1883" vert-adv-y="1502" 
d="M521 1373v-724q2 -62 53 -77v-26h-336v26q53 15 54 77v564q-1 54 -54 56v36q113 28 212 68h71zM751 0h-135l518 1365h133zM1722 0h-602v37q95 114 203 210q109 94 140 129q113 126 113 248q0 67 -30 119q-29 49 -80 49q-66 0 -78 -83q-9 -58 -26 -82q-26 -35 -86 -35
q-66 0 -92 35q-15 20 -15 44q0 68 84 118q83 50 212 50q121 0 211 -43q125 -60 125 -200q0 -87 -64 -155q-32 -33 -59 -50q-22 -14 -106 -57q-122 -66 -237 -178h219q95 1 143 28q28 16 58 54l39 -12z" />
    <glyph glyph-name="threequarters" unicode="&#xbe;" horiz-adv-x="1883" vert-adv-y="1502" 
d="M480 993l7 -1q77 -17 99 -26q137 -58 137 -182q0 -115 -98 -184q-103 -74 -259 -74q-145 0 -231 54q-65 41 -65 96q0 29 23 51q29 28 74 28q86 0 119 -114q10 -35 19 -47q17 -22 56 -22q46 0 78 28q60 53 60 173q0 185 -196 185q-11 0 -34 -1v37q71 8 112 25
q99 40 99 169q0 87 -45 129q-21 20 -56 20q-36 0 -54 -26q-10 -16 -16 -66q-11 -92 -107 -92q-54 0 -79 32q-15 18 -15 42q0 37 28 67q84 91 260 91q151 0 237 -64q65 -48 65 -131q0 -137 -218 -197zM752 0h-135l517 1365h133zM1831 193h-115v-86q0 -62 53 -77v-30h-336v30
q50 14 52 77v86h-359v50l394 584h196v-531h115v-103zM1239 296h246v366z" />
    <glyph glyph-name="questiondown" unicode="&#xbf;" horiz-adv-x="962" vert-adv-y="1502" 
d="M498 538h46q12 -51 12 -107q0 -100 -72 -205q-42 -61 -52 -115q-13 -76 -13 -170q0 -159 65 -232q37 -41 96 -41q44 0 70 20q18 15 18 36q0 19 -27 42q-50 42 -50 108q0 53 38 92q40 42 97 42t93 -46q38 -46 38 -106q0 -98 -74 -172q-96 -94 -275 -94q-198 0 -316 120
q-95 96 -95 225q0 224 275 371q67 37 87 66q35 54 39 166zM508 1006q61 0 108 -43q50 -47 50 -116q0 -64 -44 -110q-47 -50 -115 -50q-64 0 -110 43q-50 47 -50 116q0 65 44 110q48 50 117 50z" />
    <glyph glyph-name="Agrave" unicode="&#xc0;" horiz-adv-x="1203" vert-adv-y="1502" 
d="M256 437l-88 -274q-7 -22 -7 -44q0 -67 119 -93v-26h-353v26q56 17 82 37q49 37 69 100l397 1216h262l390 -1216q37 -112 113 -137v-26h-501v26q65 22 65 77q0 27 -11 60l-88 274h-449zM287 520h391l-196 604zM322 1727h267l130 -272l-10 -1z" />
    <glyph glyph-name="Aacute" unicode="&#xc1;" horiz-adv-x="1203" vert-adv-y="1502" 
d="M256 437l-88 -274q-7 -22 -7 -44q0 -67 119 -93v-26h-353v26q56 17 82 37q49 37 69 100l397 1216h262l390 -1216q37 -112 113 -137v-26h-501v26q65 22 65 77q0 27 -11 60l-88 274h-449zM287 520h391l-196 604zM882 1727l-388 -273l-9 1l130 272h267z" />
    <glyph glyph-name="Acircumflex" unicode="&#xc2;" horiz-adv-x="1203" vert-adv-y="1502" 
d="M256 437l-88 -274q-7 -22 -7 -44q0 -67 119 -93v-26h-353v26q56 17 82 37q49 37 69 100l397 1216h262l390 -1216q37 -112 113 -137v-26h-501v26q65 22 65 77q0 27 -11 60l-88 274h-449zM287 520h391l-196 604zM699 1726l168 -277h-11l-257 161l-251 -161h-10l166 277h195
z" />
    <glyph glyph-name="Atilde" unicode="&#xc3;" horiz-adv-x="1203" vert-adv-y="1502" 
d="M256 437l-88 -274q-7 -22 -7 -44q0 -67 119 -93v-26h-353v26q56 17 82 37q49 37 69 100l397 1216h262l390 -1216q37 -112 113 -137v-26h-501v26q65 22 65 77q0 27 -11 60l-88 274h-449zM287 520h391l-196 604zM353 1485l-37 4q22 124 70 165q36 31 85 31q38 0 161 -41
q64 -22 113 -22q65 0 107 73l36 -6q-40 -187 -167 -187q-56 0 -146 26q-86 26 -127 26q-64 0 -95 -69z" />
    <glyph glyph-name="Adieresis" unicode="&#xc4;" horiz-adv-x="1203" vert-adv-y="1502" 
d="M256 437l-88 -274q-7 -22 -7 -44q0 -67 119 -93v-26h-353v26q56 17 82 37q49 37 69 100l397 1216h262l390 -1216q37 -112 113 -137v-26h-501v26q65 22 65 77q0 27 -11 60l-88 274h-449zM287 520h391l-196 604zM376 1737q66 0 111 -41q37 -34 37 -84q0 -62 -51 -100
q-43 -32 -105 -32q-63 0 -102 35q-42 37 -42 93q0 58 48 97q41 32 104 32zM831 1737q66 0 111 -41q37 -34 37 -84q0 -62 -51 -100q-43 -32 -104 -32q-64 0 -103 35q-42 37 -42 93q0 58 49 97q40 32 103 32z" />
    <glyph glyph-name="Aring" unicode="&#xc5;" horiz-adv-x="1203" vert-adv-y="1502" 
d="M256 437l-88 -274q-7 -22 -7 -44q0 -67 119 -93v-26h-353v26q56 17 82 37q49 37 69 100l397 1216h262l390 -1216q37 -112 113 -137v-26h-501v26q65 22 65 77q0 27 -11 60l-88 274h-449zM287 520h391l-196 604zM605 1795q76 0 130 -59q46 -51 46 -120q0 -79 -59 -133
q-52 -46 -120 -46q-80 0 -133 59q-46 51 -46 122q0 77 59 131q51 46 123 46zM601 1694q-33 0 -57 -26q-20 -22 -20 -52q0 -35 26 -58q22 -20 52 -20q35 0 58 26q20 22 20 53q0 33 -26 57q-22 20 -53 20z" />
    <glyph glyph-name="AE" unicode="&#xc6;" horiz-adv-x="1860" vert-adv-y="1502" 
d="M1776 0h-1036v29q41 17 56 37q26 32 26 99v294h-470l-171 -293q-20 -34 -20 -61q0 -53 108 -76v-29h-350v29q93 27 160 137l690 1162l-26 12v25h1007l26 -262h-51q-29 89 -90 140q-87 70 -222 70h-111q-68 -1 -95 -22q-34 -21 -35 -97v-402h181q91 0 144 32q46 30 67 107
h44v-354h-44q-13 152 -204 154h-188v-563q1 -65 46 -92q37 -24 133 -25h95q254 2 352 221l42 -19zM822 538v628q0 45 -6 71l-414 -699h420z" />
    <glyph glyph-name="Ccedilla" unicode="&#xc7;" horiz-adv-x="1221" vert-adv-y="1502" 
d="M1174 265l44 -35q-101 -113 -214 -181q-131 -78 -301 -84l-17 -92q102 -1 150 -48q43 -41 43 -107q0 -53 -30 -95q-52 -73 -165 -73q-73 0 -157 59l23 23q42 -25 75 -25q63 0 97 51q20 30 20 69q0 47 -27 75q-28 28 -75 28q-18 0 -43 -2l25 142q-168 31 -284 112
q-284 197 -284 585q0 201 83 372q82 170 251 270q155 91 345 91q119 0 225 -32q80 -24 189 -67l-56 -268h-46q-27 122 -110 202q-100 97 -221 97q-90 0 -171 -62q-102 -77 -150 -247q-30 -105 -30 -232q0 -134 34 -262q47 -177 140 -290q117 -142 289 -142q104 0 182 44
q73 41 166 124z" />
    <glyph glyph-name="Egrave" unicode="&#xc8;" horiz-adv-x="1203" vert-adv-y="1502" 
d="M1102 0h-1027v29q40 17 56 36q26 33 26 99v1037q0 66 -26 99q-16 19 -56 36v29h1005l22 -261h-47q-82 208 -316 210h-112q-74 -1 -103 -25q-31 -23 -32 -89v-409h187q194 -3 213 140h42v-350h-42q-5 154 -214 151h-186v-550q2 -83 34 -103q36 -27 140 -28h101
q280 -1 366 247l44 -17zM321 1727h267l130 -272l-10 -1z" />
    <glyph glyph-name="Eacute" unicode="&#xc9;" horiz-adv-x="1203" vert-adv-y="1502" 
d="M1102 0h-1027v29q40 17 56 36q26 33 26 99v1037q0 66 -26 99q-16 19 -56 36v29h1005l22 -261h-47q-82 208 -316 210h-112q-74 -1 -103 -25q-31 -23 -32 -89v-409h187q194 -3 213 140h42v-350h-42q-5 154 -214 151h-186v-550q2 -83 34 -103q36 -27 140 -28h101
q280 -1 366 247l44 -17zM882 1727l-388 -273l-9 1l130 272h267z" />
    <glyph glyph-name="Ecircumflex" unicode="&#xca;" horiz-adv-x="1203" vert-adv-y="1502" 
d="M1102 0h-1027v29q40 17 56 36q26 33 26 99v1037q0 66 -26 99q-16 19 -56 36v29h1005l22 -261h-47q-82 208 -316 210h-112q-74 -1 -103 -25q-31 -23 -32 -89v-409h187q194 -3 213 140h42v-350h-42q-5 154 -214 151h-186v-550q2 -83 34 -103q36 -27 140 -28h101
q280 -1 366 247l44 -17zM698 1726l168 -277h-11l-257 161l-251 -161h-10l166 277h195z" />
    <glyph glyph-name="Edieresis" unicode="&#xcb;" horiz-adv-x="1203" vert-adv-y="1502" 
d="M1102 0h-1027v29q40 17 56 36q26 33 26 99v1037q0 66 -26 99q-16 19 -56 36v29h1005l22 -261h-47q-82 208 -316 210h-112q-74 -1 -103 -25q-31 -23 -32 -89v-409h187q194 -3 213 140h42v-350h-42q-5 154 -214 151h-186v-550q2 -83 34 -103q36 -27 140 -28h101
q280 -1 366 247l44 -17zM375 1737q66 0 111 -41q37 -34 37 -84q0 -62 -51 -100q-43 -32 -105 -32q-63 0 -102 35q-42 37 -42 93q0 58 48 97q41 32 104 32zM830 1737q66 0 111 -41q37 -34 37 -84q0 -62 -51 -100q-43 -32 -104 -32q-64 0 -103 35q-42 37 -42 93q0 58 49 97
q40 32 103 32z" />
    <glyph glyph-name="Igrave" unicode="&#xcc;" horiz-adv-x="678" vert-adv-y="1502" 
d="M88 1336v29h500v-29q-40 -17 -55 -36q-25 -32 -26 -99v-1037q1 -66 26 -98q15 -20 55 -37v-29h-500v29q41 17 56 37q26 33 26 98v1037q0 65 -26 99q-15 19 -56 36zM59 1727h267l130 -272l-10 -1z" />
    <glyph glyph-name="Iacute" unicode="&#xcd;" horiz-adv-x="678" vert-adv-y="1502" 
d="M88 1336v29h500v-29q-40 -17 -55 -36q-25 -32 -26 -99v-1037q1 -66 26 -98q15 -20 55 -37v-29h-500v29q41 17 56 37q26 33 26 98v1037q0 65 -26 99q-15 19 -56 36zM619 1727l-388 -273l-9 1l130 272h267z" />
    <glyph glyph-name="Icircumflex" unicode="&#xce;" horiz-adv-x="678" vert-adv-y="1502" 
d="M89 1336v29h500v-29q-40 -17 -55 -36q-25 -32 -26 -99v-1037q1 -66 26 -98q15 -20 55 -37v-29h-500v29q41 17 56 37q26 33 26 98v1037q0 65 -26 99q-15 19 -56 36zM436 1726l168 -277h-11l-257 161l-251 -161h-10l166 277h195z" />
    <glyph glyph-name="Idieresis" unicode="&#xcf;" horiz-adv-x="678" vert-adv-y="1502" 
d="M88 1336v29h500v-29q-40 -17 -55 -36q-25 -32 -26 -99v-1037q1 -66 26 -98q15 -20 55 -37v-29h-500v29q41 17 56 37q26 33 26 98v1037q0 65 -26 99q-15 19 -56 36zM133 1743q58 0 97 -43q32 -34 32 -85q0 -63 -45 -102q-37 -33 -91 -33q-56 0 -91 37q-36 37 -36 94
q0 60 42 98q36 34 92 34zM543 1744q59 0 98 -43q32 -34 32 -86q0 -63 -45 -102q-38 -33 -92 -33q-56 0 -91 37q-36 37 -36 95q0 59 42 98q37 34 92 34z" />
    <glyph glyph-name="Eth" unicode="&#xd0;" horiz-adv-x="1478" vert-adv-y="1502" 
d="M164 754v447q-1 66 -26 99q-15 19 -55 36v29h192q23 -2 161 9q125 9 220 9q193 0 365 -70q185 -76 290 -244q113 -182 113 -416q0 -202 -89 -365q-71 -131 -214 -206q-155 -82 -385 -82h-653v30q40 16 55 36q25 32 26 99v495h-131v94h131zM485 754h186v-94h-186v-495
q0 -110 171 -110q184 0 284 106q147 156 147 507q0 391 -182 558q-82 75 -213 96q-31 5 -60 5q-147 0 -147 -132v-441z" />
    <glyph glyph-name="Ntilde" unicode="&#xd1;" horiz-adv-x="1451" vert-adv-y="1502" 
d="M1273 0h-287l-722 1092v-922q0 -76 39 -109q26 -21 75 -32v-29h-315v29q50 11 76 32q38 33 39 109v1025q-1 76 -39 109q-26 21 -76 32v29h415l706 -1062v892q-1 76 -39 109q-26 21 -76 32v29h318v-29q-49 -11 -75 -32q-39 -33 -39 -109v-1195zM477 1485l-37 4
q22 124 70 165q36 31 85 31q38 0 161 -41q64 -22 113 -22q65 0 107 73l36 -6q-40 -187 -167 -187q-56 0 -146 26q-86 26 -127 26q-64 0 -95 -69z" />
    <glyph glyph-name="Ograve" unicode="&#xd2;" horiz-adv-x="1493" vert-adv-y="1502" 
d="M755 1399q234 0 427 -154q139 -109 203 -274q53 -136 53 -290q0 -271 -151 -459q-114 -143 -297 -211q-120 -45 -244 -45q-243 0 -437 152q-140 109 -203 277q-52 138 -52 295q0 259 151 451q114 145 298 214q118 44 252 44zM739 1343q-90 0 -156 -58
q-191 -168 -191 -603q0 -194 46 -366q39 -146 145 -236q69 -58 169 -58q94 0 161 58q103 92 141 236q46 176 46 375q0 189 -46 355q-41 150 -145 239q-68 58 -170 58zM466 1727h267l130 -272l-10 -1z" />
    <glyph glyph-name="Oacute" unicode="&#xd3;" horiz-adv-x="1493" vert-adv-y="1502" 
d="M755 1399q234 0 427 -154q139 -109 203 -274q53 -136 53 -290q0 -271 -151 -459q-114 -143 -297 -211q-120 -45 -244 -45q-243 0 -437 152q-140 109 -203 277q-52 138 -52 295q0 259 151 451q114 145 298 214q118 44 252 44zM739 1343q-90 0 -156 -58
q-191 -168 -191 -603q0 -194 46 -366q39 -146 145 -236q69 -58 169 -58q94 0 161 58q103 92 141 236q46 176 46 375q0 189 -46 355q-41 150 -145 239q-68 58 -170 58zM1027 1727l-388 -273l-9 1l130 272h267z" />
    <glyph glyph-name="Ocircumflex" unicode="&#xd4;" horiz-adv-x="1493" vert-adv-y="1502" 
d="M755 1399q234 0 427 -154q139 -109 203 -274q53 -136 53 -290q0 -271 -151 -459q-114 -143 -297 -211q-120 -45 -244 -45q-243 0 -437 152q-140 109 -203 277q-52 138 -52 295q0 259 151 451q114 145 298 214q118 44 252 44zM739 1343q-90 0 -156 -58
q-191 -168 -191 -603q0 -194 46 -366q39 -146 145 -236q69 -58 169 -58q94 0 161 58q103 92 141 236q46 176 46 375q0 189 -46 355q-41 150 -145 239q-68 58 -170 58zM843 1726l168 -277h-11l-257 161l-251 -161h-10l166 277h195z" />
    <glyph glyph-name="Otilde" unicode="&#xd5;" horiz-adv-x="1493" vert-adv-y="1502" 
d="M755 1399q234 0 427 -154q139 -109 203 -274q53 -136 53 -290q0 -271 -151 -459q-114 -143 -297 -211q-120 -45 -244 -45q-243 0 -437 152q-140 109 -203 277q-52 138 -52 295q0 259 151 451q114 145 298 214q118 44 252 44zM739 1343q-90 0 -156 -58
q-191 -168 -191 -603q0 -194 46 -366q39 -146 145 -236q69 -58 169 -58q94 0 161 58q103 92 141 236q46 176 46 375q0 189 -46 355q-41 150 -145 239q-68 58 -170 58zM497 1485l-37 4q22 124 70 165q36 31 85 31q38 0 161 -41q64 -22 113 -22q65 0 107 73l36 -6
q-40 -187 -167 -187q-56 0 -146 26q-86 26 -127 26q-64 0 -95 -69z" />
    <glyph glyph-name="Odieresis" unicode="&#xd6;" horiz-adv-x="1493" vert-adv-y="1502" 
d="M755 1399q234 0 427 -154q139 -109 203 -274q53 -136 53 -290q0 -271 -151 -459q-114 -143 -297 -211q-120 -45 -244 -45q-243 0 -437 152q-140 109 -203 277q-52 138 -52 295q0 259 151 451q114 145 298 214q118 44 252 44zM739 1343q-90 0 -156 -58
q-191 -168 -191 -603q0 -194 46 -366q39 -146 145 -236q69 -58 169 -58q94 0 161 58q103 92 141 236q46 176 46 375q0 189 -46 355q-41 150 -145 239q-68 58 -170 58zM520 1737q66 0 111 -41q37 -34 37 -84q0 -62 -51 -100q-43 -32 -105 -32q-63 0 -102 35q-42 37 -42 93
q0 58 48 97q41 32 104 32zM975 1737q66 0 111 -41q37 -34 37 -84q0 -62 -51 -100q-43 -32 -104 -32q-64 0 -103 35q-42 37 -42 93q0 58 49 97q40 32 103 32z" />
    <glyph glyph-name="multiply" unicode="&#xd7;" vert-adv-y="1502" 
d="M215 1168l295 -299l301 303l125 -125l-303 -300l300 -298l-120 -121l-298 301l-301 -304l-125 125l304 301l-299 296z" />
    <glyph glyph-name="Oslash" unicode="&#xd8;" horiz-adv-x="1495" vert-adv-y="1502" 
d="M1387 1407l-154 -198q207 -208 207 -526q0 -271 -152 -460q-113 -142 -297 -212q-120 -45 -240 -45q-214 0 -410 123l-109 -138h-106l149 190q-38 36 -61 66q-158 201 -158 475q0 267 151 459q116 146 298 215q118 44 240 44q221 0 420 -134l109 141h113zM441 344
l589 755q-35 87 -71 134q-85 108 -216 108q-95 0 -160 -58q-189 -167 -189 -597q0 -195 47 -342zM1057 997l-586 -750q89 -227 282 -227q95 0 160 59q99 90 142 235q47 159 47 333q0 165 -45 350z" />
    <glyph glyph-name="Ugrave" unicode="&#xd9;" horiz-adv-x="1401" vert-adv-y="1502" 
d="M67 1365h499v-29q-40 -17 -56 -36q-26 -33 -26 -99v-802q0 -125 15 -177q54 -191 302 -191q172 0 273 95q105 99 105 298v771q0 76 -39 109q-26 21 -76 32v29h316v-29q-50 -11 -76 -32q-39 -33 -39 -109v-746q0 -231 -107 -345q-129 -138 -389 -138q-276 0 -454 106
q-166 100 -166 342v787q0 65 -26 99q-15 19 -56 36v29zM420 1727h267l130 -272l-10 -1z" />
    <glyph glyph-name="Uacute" unicode="&#xda;" horiz-adv-x="1401" vert-adv-y="1502" 
d="M67 1365h499v-29q-40 -17 -56 -36q-26 -33 -26 -99v-802q0 -125 15 -177q54 -191 302 -191q172 0 273 95q105 99 105 298v771q0 76 -39 109q-26 21 -76 32v29h316v-29q-50 -11 -76 -32q-39 -33 -39 -109v-746q0 -231 -107 -345q-129 -138 -389 -138q-276 0 -454 106
q-166 100 -166 342v787q0 65 -26 99q-15 19 -56 36v29zM1117 1727l-388 -273l-9 1l130 272h267z" />
    <glyph glyph-name="Ucircumflex" unicode="&#xdb;" horiz-adv-x="1401" vert-adv-y="1502" 
d="M67 1365h499v-29q-40 -17 -56 -36q-26 -33 -26 -99v-802q0 -125 15 -177q54 -191 302 -191q172 0 273 95q105 99 105 298v771q0 76 -39 109q-26 21 -76 32v29h316v-29q-50 -11 -76 -32q-39 -33 -39 -109v-746q0 -231 -107 -345q-129 -138 -389 -138q-276 0 -454 106
q-166 100 -166 342v787q0 65 -26 99q-15 19 -56 36v29zM893 1726l168 -277h-11l-257 161l-251 -161h-10l166 277h195z" />
    <glyph glyph-name="Udieresis" unicode="&#xdc;" horiz-adv-x="1401" vert-adv-y="1502" 
d="M67 1365h499v-29q-40 -17 -56 -36q-26 -33 -26 -99v-802q0 -125 15 -177q54 -191 302 -191q172 0 273 95q105 99 105 298v771q0 76 -39 109q-26 21 -76 32v29h316v-29q-50 -11 -76 -32q-39 -33 -39 -109v-746q0 -231 -107 -345q-129 -138 -389 -138q-276 0 -454 106
q-166 100 -166 342v787q0 65 -26 99q-15 19 -56 36v29zM611 1737q66 0 111 -41q37 -34 37 -84q0 -62 -51 -100q-43 -32 -105 -32q-63 0 -102 35q-42 37 -42 93q0 58 48 97q41 32 104 32zM1066 1737q66 0 111 -41q37 -34 37 -84q0 -62 -51 -100q-43 -32 -104 -32
q-64 0 -103 35q-42 37 -42 93q0 58 49 97q40 32 103 32z" />
    <glyph glyph-name="Yacute" unicode="&#xdd;" horiz-adv-x="1203" vert-adv-y="1502" 
d="M771 563v-399q0 -66 26 -98q16 -20 56 -37v-29h-497v29q40 17 55 37q26 33 26 98v399l-352 639q-63 113 -134 135v28h560v-28q-79 -21 -79 -71q0 -27 20 -64l287 -529l286 529q19 34 19 63q0 51 -87 72v28h300v-28q-83 -31 -139 -135zM964 1727l-388 -273l-9 1l130 272
h267z" />
    <glyph glyph-name="Thorn" unicode="&#xde;" horiz-adv-x="1264" vert-adv-y="1502" 
d="M508 443v-279q1 -66 26 -98q15 -20 55 -37v-29h-500v29q41 17 56 37q26 33 26 98v1037q0 65 -26 99q-15 19 -56 36v29h500v-29q-40 -17 -55 -36q-25 -32 -26 -99v-73q147 6 182 6q311 0 453 -161q65 -72 65 -187q0 -143 -104 -231q-136 -116 -458 -116q-54 0 -138 4z
M508 492q48 -2 73 -2q164 0 245 54q88 60 88 222q0 190 -118 266q-78 51 -180 51q-47 0 -73 -18q-35 -25 -35 -107v-466z" />
    <glyph glyph-name="germandbls" unicode="&#xdf;" horiz-adv-x="1104" vert-adv-y="1502" 
d="M493 22v244h44q5 -94 27 -140t72 -70q34 -16 76 -16q66 0 109 38q44 39 44 101q0 46 -30 90q-35 50 -128 125q-129 105 -160 155q-36 56 -36 114q0 53 32 112q28 51 96 134q60 73 77 104q30 53 30 113q0 103 -68 167q-52 49 -122 49q-144 0 -144 -204v-1138h-357v27
q32 18 42 37q14 25 14 76v841q0 199 99 300q115 118 342 118q201 0 299 -92q66 -62 66 -139t-49 -131q-27 -31 -70 -64q-79 -59 -103 -92q-23 -32 -23 -61q0 -18 8 -33q16 -29 43 -51l197 -157q147 -117 147 -242q0 -109 -75 -209q-111 -149 -309 -149q-84 0 -190 43z" />
    <glyph glyph-name="agrave" unicode="&#xe0;" horiz-adv-x="987" vert-adv-y="1502" 
d="M969 55q-58 -44 -100 -60t-100 -16q-110 0 -165 65q-22 24 -33 74q-68 -55 -99 -75q-94 -64 -206 -64q-113 0 -185 63q-66 59 -66 150q0 142 193 247q106 57 363 157v213q0 97 -85 97q-38 0 -67 -25q-16 -14 -29 -59q-46 -160 -155 -160q-60 0 -98 42q-22 24 -22 59
q0 78 87 129q123 71 322 71q171 0 259 -61q86 -58 86 -169v-614q0 -50 31 -50q17 0 35 21zM571 179v351q-143 -59 -195 -107q-67 -63 -67 -167q0 -78 44 -119q26 -24 63 -24q59 0 155 66zM517 1364l85 -289h-10l-372 289h297z" />
    <glyph glyph-name="aacute" unicode="&#xe1;" horiz-adv-x="987" vert-adv-y="1502" 
d="M969 55q-58 -44 -100 -60t-100 -16q-110 0 -165 65q-22 24 -33 74q-68 -55 -99 -75q-94 -64 -206 -64q-113 0 -185 63q-66 59 -66 150q0 142 193 247q106 57 363 157v213q0 97 -85 97q-38 0 -67 -25q-16 -14 -29 -59q-46 -160 -155 -160q-60 0 -98 42q-22 24 -22 59
q0 78 87 129q123 71 322 71q171 0 259 -61q86 -58 86 -169v-614q0 -50 31 -50q17 0 35 21zM571 179v351q-143 -59 -195 -107q-67 -63 -67 -167q0 -78 44 -119q26 -24 63 -24q59 0 155 66zM763 1363l-367 -288h-9l109 288h267z" />
    <glyph glyph-name="acircumflex" unicode="&#xe2;" horiz-adv-x="987" vert-adv-y="1502" 
d="M969 55q-58 -44 -100 -60t-100 -16q-110 0 -165 65q-22 24 -33 74q-68 -55 -99 -75q-94 -64 -206 -64q-113 0 -185 63q-66 59 -66 150q0 142 193 247q106 57 363 157v213q0 97 -85 97q-38 0 -67 -25q-16 -14 -29 -59q-46 -160 -155 -160q-60 0 -98 42q-22 24 -22 59
q0 78 87 129q123 71 322 71q171 0 259 -61q86 -58 86 -169v-614q0 -50 31 -50q17 0 35 21zM571 179v351q-143 -59 -195 -107q-67 -63 -67 -167q0 -78 44 -119q26 -24 63 -24q59 0 155 66zM590 1362l152 -287h-10l-242 171l-235 -171h-10l150 287h195z" />
    <glyph glyph-name="atilde" unicode="&#xe3;" horiz-adv-x="987" vert-adv-y="1502" 
d="M969 55q-58 -44 -100 -60t-100 -16q-110 0 -165 65q-22 24 -33 74q-68 -55 -99 -75q-94 -64 -206 -64q-113 0 -185 63q-66 59 -66 150q0 142 193 247q106 57 363 157v213q0 97 -85 97q-38 0 -67 -25q-16 -14 -29 -59q-46 -160 -155 -160q-60 0 -98 42q-22 24 -22 59
q0 78 87 129q123 71 322 71q171 0 259 -61q86 -58 86 -169v-614q0 -50 31 -50q17 0 35 21zM571 179v351q-143 -59 -195 -107q-67 -63 -67 -167q0 -78 44 -119q26 -24 63 -24q59 0 155 66zM245 1124l-37 4q22 123 70 164q36 31 85 31q38 0 161 -41q64 -21 113 -21
q65 0 107 72l36 -5q-40 -187 -167 -187q-57 0 -146 26q-85 25 -127 25q-64 0 -95 -68z" />
    <glyph glyph-name="adieresis" unicode="&#xe4;" horiz-adv-x="987" vert-adv-y="1502" 
d="M969 55q-58 -44 -100 -60t-100 -16q-110 0 -165 65q-22 24 -33 74q-68 -55 -99 -75q-94 -64 -206 -64q-113 0 -185 63q-66 59 -66 150q0 142 193 247q106 57 363 157v213q0 97 -85 97q-38 0 -67 -25q-16 -14 -29 -59q-46 -160 -155 -160q-60 0 -98 42q-22 24 -22 59
q0 78 87 129q123 71 322 71q171 0 259 -61q86 -58 86 -169v-614q0 -50 31 -50q17 0 35 21zM571 179v351q-143 -59 -195 -107q-67 -63 -67 -167q0 -78 44 -119q26 -24 63 -24q59 0 155 66zM268 1373q66 0 111 -41q37 -34 37 -84q0 -62 -51 -100q-43 -32 -105 -32
q-63 0 -102 35q-42 37 -42 93q0 58 48 97q41 32 104 32zM723 1373q66 0 111 -41q37 -34 37 -84q0 -62 -51 -100q-43 -32 -104 -32q-64 0 -103 35q-42 37 -42 93q0 58 49 97q40 32 103 32z" />
    <glyph glyph-name="aring" unicode="&#xe5;" horiz-adv-x="987" vert-adv-y="1502" 
d="M969 55q-58 -44 -100 -60t-100 -16q-110 0 -165 65q-22 24 -33 74q-68 -55 -99 -75q-94 -64 -206 -64q-113 0 -185 63q-66 59 -66 150q0 142 193 247q106 57 363 157v213q0 97 -85 97q-38 0 -67 -25q-16 -14 -29 -59q-46 -160 -155 -160q-60 0 -98 42q-22 24 -22 59
q0 78 87 129q123 71 322 71q171 0 259 -61q86 -58 86 -169v-614q0 -50 31 -50q17 0 35 21zM571 179v351q-143 -59 -195 -107q-67 -63 -67 -167q0 -78 44 -119q26 -24 63 -24q59 0 155 66zM496 1431q76 0 130 -59q46 -51 46 -119q0 -79 -59 -133q-51 -46 -120 -46
q-79 0 -132 59q-46 51 -46 121q0 77 59 131q51 46 122 46zM492 1330q-32 0 -56 -26q-20 -22 -20 -51q0 -35 26 -58q22 -20 52 -20q34 0 57 26q20 22 20 52q0 33 -26 57q-22 20 -53 20z" />
    <glyph glyph-name="ae" unicode="&#xe6;" horiz-adv-x="1427" vert-adv-y="1502" 
d="M1391 206q-94 -96 -144 -132q-134 -95 -275 -95q-117 0 -222 70q-50 34 -112 122q-212 -192 -387 -192q-106 0 -173 60q-65 58 -65 149q0 116 110 193q83 58 269 134q45 19 174 70v222q0 99 -90 99q-51 0 -76 -36q-15 -22 -25 -64q-17 -72 -42 -97q-38 -39 -96 -39
q-77 0 -111 54q-13 21 -13 46q0 63 64 109q118 84 303 84q184 0 268 -89q64 44 104 61q69 28 144 28q152 0 259 -102q123 -116 123 -332v-43h-513q15 -170 74 -243q79 -99 201 -99q73 0 131 34q35 20 78 55zM859 557h192q47 0 66 23q21 26 21 80q0 245 -131 245
q-59 0 -98 -51q-50 -68 -50 -260v-37zM566 175v346q-32 -15 -46 -22q-137 -63 -174 -115q-40 -56 -40 -128q0 -87 48 -124q27 -20 64 -20q57 0 148 63z" />
    <glyph glyph-name="ccedilla" unicode="&#xe7;" horiz-adv-x="860" vert-adv-y="1502" 
d="M841 208q-127 -192 -332 -225l-11 -86q18 2 29 2q38 0 72 -19q65 -36 65 -110q0 -73 -57 -121q-46 -39 -117 -39q-63 0 -140 41l13 20q54 -16 86 -16q30 0 55 14q54 31 54 98q0 39 -23 63q-24 23 -62 23q-19 0 -48 -5l17 130q-118 3 -212 70q-186 132 -186 398
q0 137 55 259q62 136 180 204q93 54 208 54q149 0 247 -83q65 -56 65 -132q0 -60 -50 -90q-29 -17 -65 -17q-55 0 -92 47q-22 29 -30 109q-7 69 -24 88q-17 20 -42 20q-40 0 -77 -38q-53 -55 -77 -187q-11 -63 -11 -136q0 -213 103 -335q62 -72 167 -72q89 0 154 52
q18 16 45 43z" />
    <glyph glyph-name="egrave" unicode="&#xe8;" horiz-adv-x="904" vert-adv-y="1502" 
d="M868 211q-78 -87 -146 -142q-115 -91 -269 -91q-157 0 -273 113q-77 74 -112 199q-24 87 -24 182q0 238 142 374q124 117 283 117q147 0 258 -99q103 -91 124 -240q5 -38 5 -102v-42h-511q12 -188 94 -261q74 -66 180 -66q63 0 113 23q41 20 98 59zM338 551h183
q58 0 75 22q24 33 24 112q0 98 -38 165q-31 55 -95 55q-150 0 -149 -354zM476 1364l85 -289h-10l-372 289h297z" />
    <glyph glyph-name="eacute" unicode="&#xe9;" horiz-adv-x="904" vert-adv-y="1502" 
d="M868 211q-78 -87 -146 -142q-115 -91 -269 -91q-157 0 -273 113q-77 74 -112 199q-24 87 -24 182q0 238 142 374q124 117 283 117q147 0 258 -99q103 -91 124 -240q5 -38 5 -102v-42h-511q12 -188 94 -261q74 -66 180 -66q63 0 113 23q41 20 98 59zM338 551h183
q58 0 75 22q24 33 24 112q0 98 -38 165q-31 55 -95 55q-150 0 -149 -354zM790 1363l-367 -288h-9l109 288h267z" />
    <glyph glyph-name="ecircumflex" unicode="&#xea;" horiz-adv-x="904" vert-adv-y="1502" 
d="M868 211q-78 -87 -146 -142q-115 -91 -269 -91q-157 0 -273 113q-77 74 -112 199q-24 87 -24 182q0 238 142 374q124 117 283 117q147 0 258 -99q103 -91 124 -240q5 -38 5 -102v-42h-511q12 -188 94 -261q74 -66 180 -66q63 0 113 23q41 20 98 59zM338 551h183
q58 0 75 22q24 33 24 112q0 98 -38 165q-31 55 -95 55q-150 0 -149 -354zM548 1362l152 -287h-10l-242 171l-235 -171h-10l150 287h195z" />
    <glyph glyph-name="edieresis" unicode="&#xeb;" horiz-adv-x="904" vert-adv-y="1502" 
d="M868 211q-78 -87 -146 -142q-115 -91 -269 -91q-157 0 -273 113q-77 74 -112 199q-24 87 -24 182q0 238 142 374q124 117 283 117q147 0 258 -99q103 -91 124 -240q5 -38 5 -102v-42h-511q12 -188 94 -261q74 -66 180 -66q63 0 113 23q41 20 98 59zM338 551h183
q58 0 75 22q24 33 24 112q0 98 -38 165q-31 55 -95 55q-150 0 -149 -354zM226 1373q66 0 111 -41q37 -34 37 -84q0 -62 -51 -100q-43 -32 -105 -32q-63 0 -102 35q-42 37 -42 93q0 58 48 97q41 32 104 32zM681 1373q66 0 111 -41q37 -34 37 -84q0 -62 -51 -100
q-43 -32 -104 -32q-64 0 -103 35q-42 37 -42 93q0 58 49 97q40 32 103 32z" />
    <glyph glyph-name="igrave" unicode="&#xec;" horiz-adv-x="546" vert-adv-y="1502" 
d="M66 815v45q134 31 173 47q34 11 140 62h43v-829q0 -51 14 -76q10 -19 43 -37v-27h-412v27q31 18 42 37q13 24 13 76v584q0 81 -56 91zM297 1364l85 -289h-10l-372 289h297z" />
    <glyph glyph-name="iacute" unicode="&#xed;" horiz-adv-x="546" vert-adv-y="1502" 
d="M65 815v45q134 31 173 47q34 11 140 62h43v-829q0 -51 14 -76q10 -19 43 -37v-27h-412v27q31 18 42 37q13 24 13 76v584q0 81 -56 91zM543 1363l-367 -288h-9l109 288h267z" />
    <glyph glyph-name="icircumflex" unicode="&#xee;" horiz-adv-x="546" vert-adv-y="1502" 
d="M65 815v45q134 31 173 47q34 11 140 62h43v-829q0 -51 14 -76q10 -19 43 -37v-27h-412v27q31 18 42 37q13 24 13 76v584q0 81 -56 91zM369 1362l152 -287h-10l-242 171l-235 -171h-10l150 287h195z" />
    <glyph glyph-name="idieresis" unicode="&#xef;" horiz-adv-x="546" vert-adv-y="1502" 
d="M65 815v45q134 31 173 47q34 11 140 62h43v-829q0 -51 14 -76q10 -19 43 -37v-27h-412v27q31 18 42 37q13 24 13 76v584q0 81 -56 91zM67 1379q58 0 97 -43q32 -34 32 -85q0 -63 -45 -102q-37 -33 -91 -33q-56 0 -91 37q-36 37 -36 94q0 60 42 98q36 34 92 34zM477 1380
q59 0 98 -43q32 -34 32 -86q0 -63 -45 -102q-38 -33 -92 -33q-56 0 -91 37q-36 37 -36 95q0 59 42 98q37 34 92 34z" />
    <glyph glyph-name="eth" unicode="&#xf0;" horiz-adv-x="1058" vert-adv-y="1502" 
d="M526 906q-180 0 -180 -441q0 -430 183 -430q182 0 182 419q0 269 -63 378q-42 74 -122 74zM353 1064l-47 50l163 136q-45 41 -76 68q-50 43 -114 80l20 38q65 -21 155 -65q54 -28 96 -54l164 136l46 -51l-153 -127q131 -95 223 -229q184 -271 184 -572q0 -237 -165 -382
q-129 -113 -319 -113q-186 0 -313 105q-173 143 -173 388q0 172 87 298q78 115 219 163q85 30 164 30q77 0 118 -14q33 -11 50 -15q-59 142 -166 265z" />
    <glyph glyph-name="ntilde" unicode="&#xf1;" horiz-adv-x="1069" vert-adv-y="1502" 
d="M416 794q107 73 155 101q117 67 203 67q180 0 180 -181v-641q0 -51 14 -76q10 -19 42 -37v-27h-409v27q32 18 42 37q13 25 13 76v571q0 67 -21 86q-17 17 -44 17q-56 0 -175 -78v-596q0 -51 14 -76q10 -19 42 -37v-27h-413v27q32 18 42 37q14 24 14 76v584q0 79 -54 91
v45q132 31 171 47q34 11 140 62h44v-175zM286 1124l-37 4q22 123 70 164q36 31 85 31q38 0 161 -41q64 -21 113 -21q65 0 107 72l36 -5q-40 -187 -167 -187q-57 0 -146 26q-85 25 -127 25q-64 0 -95 -68z" />
    <glyph glyph-name="ograve" unicode="&#xf2;" horiz-adv-x="1058" vert-adv-y="1502" 
d="M534 963q158 0 288 -89q192 -131 192 -407q0 -275 -192 -402q-130 -86 -293 -86t-293 86q-192 127 -192 401q0 278 192 408q131 89 298 89zM527 907q-180 0 -180 -442q0 -430 182 -430t182 420q0 269 -63 378q-42 74 -121 74zM553 1364l85 -289h-10l-372 289h297z" />
    <glyph glyph-name="oacute" unicode="&#xf3;" horiz-adv-x="1058" vert-adv-y="1502" 
d="M534 963q158 0 288 -89q192 -131 192 -407q0 -275 -192 -402q-130 -86 -293 -86t-293 86q-192 127 -192 401q0 278 192 408q131 89 298 89zM527 907q-180 0 -180 -442q0 -430 182 -430t182 420q0 269 -63 378q-42 74 -121 74zM799 1363l-367 -288h-9l109 288h267z" />
    <glyph glyph-name="ocircumflex" unicode="&#xf4;" horiz-adv-x="1058" vert-adv-y="1502" 
d="M534 963q158 0 288 -89q192 -131 192 -407q0 -275 -192 -402q-130 -86 -293 -86t-293 86q-192 127 -192 401q0 278 192 408q131 89 298 89zM527 907q-180 0 -180 -442q0 -430 182 -430t182 420q0 269 -63 378q-42 74 -121 74zM625 1362l152 -287h-10l-242 171l-235 -171
h-10l150 287h195z" />
    <glyph glyph-name="otilde" unicode="&#xf5;" horiz-adv-x="1058" vert-adv-y="1502" 
d="M534 963q158 0 288 -89q192 -131 192 -407q0 -275 -192 -402q-130 -86 -293 -86t-293 86q-192 127 -192 401q0 278 192 408q131 89 298 89zM527 907q-180 0 -180 -442q0 -430 182 -430t182 420q0 269 -63 378q-42 74 -121 74zM280 1124l-37 4q22 123 70 164q36 31 85 31
q38 0 161 -41q64 -21 113 -21q65 0 107 72l36 -5q-40 -187 -167 -187q-57 0 -146 26q-85 25 -127 25q-64 0 -95 -68z" />
    <glyph glyph-name="odieresis" unicode="&#xf6;" horiz-adv-x="1058" vert-adv-y="1502" 
d="M534 963q158 0 288 -89q192 -131 192 -407q0 -275 -192 -402q-130 -86 -293 -86t-293 86q-192 127 -192 401q0 278 192 408q131 89 298 89zM527 907q-180 0 -180 -442q0 -430 182 -430t182 420q0 269 -63 378q-42 74 -121 74zM303 1373q66 0 111 -41q37 -34 37 -84
q0 -62 -51 -100q-43 -32 -105 -32q-63 0 -102 35q-42 37 -42 93q0 58 48 97q41 32 104 32zM758 1373q66 0 111 -41q37 -34 37 -84q0 -62 -51 -100q-43 -32 -104 -32q-64 0 -103 35q-42 37 -42 93q0 58 49 97q40 32 103 32z" />
    <glyph glyph-name="divide" unicode="&#xf7;" vert-adv-y="1502" 
d="M10 833h1004v-170h-1004v170zM514 1220q50 0 87 -36q39 -37 39 -91t-40 -92q-37 -36 -88 -36q-50 0 -87 36q-40 38 -40 92q0 55 39 91q38 36 90 36zM513 529q53 0 92 -41q34 -35 34 -86q0 -55 -40 -92q-37 -36 -87 -36q-51 0 -88 36q-40 38 -40 91q0 52 34 87
q40 41 95 41z" />
    <glyph glyph-name="oslash" unicode="&#xf8;" horiz-adv-x="1080" vert-adv-y="1502" 
d="M1063 1011l-169 -189q131 -145 131 -358q0 -190 -100 -314q-79 -98 -216 -143q-88 -28 -170 -28q-155 0 -300 89l-119 -131h-106l165 183q-123 124 -123 346q0 275 192 408q128 89 292 89q169 0 293 -90l120 138h110zM686 720q-18 84 -40 124q-34 60 -107 60
q-76 0 -116 -72q-65 -119 -65 -328q0 -82 17 -181zM702 621l-310 -393q17 -95 42 -137q35 -58 105 -58q46 0 86 33q46 37 72 135q25 95 25 206q0 80 -20 214z" />
    <glyph glyph-name="ugrave" unicode="&#xf9;" horiz-adv-x="1066" vert-adv-y="1502" 
d="M650 0v148q-87 -66 -139 -97q-124 -72 -226 -72q-82 0 -133 54q-39 42 -39 139v552q0 79 -55 91v45q133 31 171 47q35 11 141 62h44v-739q0 -100 66 -100t170 88v506q0 79 -54 91v45q132 31 171 47q34 11 140 62h44v-829q0 -52 13 -76q11 -19 42 -37v-27h-356zM557 1364
l85 -289h-10l-372 289h297z" />
    <glyph glyph-name="uacute" unicode="&#xfa;" horiz-adv-x="1066" vert-adv-y="1502" 
d="M650 0v148q-87 -66 -139 -97q-124 -72 -226 -72q-82 0 -133 54q-39 42 -39 139v552q0 79 -55 91v45q133 31 171 47q35 11 141 62h44v-739q0 -100 66 -100t170 88v506q0 79 -54 91v45q132 31 171 47q34 11 140 62h44v-829q0 -52 13 -76q11 -19 42 -37v-27h-356zM803 1363
l-367 -288h-9l109 288h267z" />
    <glyph glyph-name="ucircumflex" unicode="&#xfb;" horiz-adv-x="1066" vert-adv-y="1502" 
d="M650 0v148q-87 -66 -139 -97q-124 -72 -226 -72q-82 0 -133 54q-39 42 -39 139v552q0 79 -55 91v45q133 31 171 47q35 11 141 62h44v-739q0 -100 66 -100t170 88v506q0 79 -54 91v45q132 31 171 47q34 11 140 62h44v-829q0 -52 13 -76q11 -19 42 -37v-27h-356zM629 1362
l152 -287h-10l-242 171l-235 -171h-10l150 287h195z" />
    <glyph glyph-name="udieresis" unicode="&#xfc;" horiz-adv-x="1066" vert-adv-y="1502" 
d="M650 0v148q-87 -66 -139 -97q-124 -72 -226 -72q-82 0 -133 54q-39 42 -39 139v552q0 79 -55 91v45q133 31 171 47q35 11 141 62h44v-739q0 -100 66 -100t170 88v506q0 79 -54 91v45q132 31 171 47q34 11 140 62h44v-829q0 -52 13 -76q11 -19 42 -37v-27h-356zM307 1373
q66 0 111 -41q37 -34 37 -84q0 -62 -51 -100q-43 -32 -105 -32q-63 0 -102 35q-42 37 -42 93q0 58 48 97q41 32 104 32zM762 1373q66 0 111 -41q37 -34 37 -84q0 -62 -51 -100q-43 -32 -104 -32q-64 0 -103 35q-42 37 -42 93q0 58 49 97q40 32 103 32z" />
    <glyph glyph-name="yacute" unicode="&#xfd;" horiz-adv-x="815" vert-adv-y="1502" 
d="M387 0l-334 795q-20 47 -46 73q-21 20 -65 36v27h482v-27q-62 -22 -62 -62q0 -22 10 -47l164 -426l164 423q10 26 10 45q0 44 -90 67v27h280v-27q-53 -19 -75 -38q-32 -26 -50 -71l-419 -1061q-41 -103 -91 -147q-51 -45 -123 -45q-71 0 -114 44q-37 38 -37 87
q0 50 41 80q30 23 67 23q41 0 63 -21q10 -9 26 -34q19 -30 39 -30q34 0 61 66zM814 1363l-367 -288h-9l109 288h267z" />
    <glyph glyph-name="thorn" unicode="&#xfe;" horiz-adv-x="1068" vert-adv-y="1502" 
d="M410 66v-363q0 -52 14 -76q10 -19 42 -37v-27h-413v27q32 18 42 37q14 24 14 76v1449q0 80 -56 91v45q134 31 173 47q34 11 140 63h44v-572q63 59 104 84q85 53 174 53q139 0 233 -114q54 -66 82 -179q21 -82 21 -170q0 -169 -69 -313q-46 -93 -137 -153
q-85 -56 -188 -56q-109 0 -220 88zM410 759v-531q0 -83 48 -128q39 -36 89 -36q74 0 113 79q58 119 58 334q0 133 -36 243q-37 112 -133 112q-53 0 -139 -73z" />
    <glyph glyph-name="ydieresis" unicode="&#xff;" horiz-adv-x="815" vert-adv-y="1502" 
d="M387 0l-334 795q-20 47 -46 73q-21 20 -65 36v27h482v-27q-62 -22 -62 -62q0 -22 10 -47l164 -426l164 423q10 26 10 45q0 44 -90 67v27h280v-27q-53 -19 -75 -38q-32 -26 -50 -71l-419 -1061q-41 -103 -91 -147q-51 -45 -123 -45q-71 0 -114 44q-37 38 -37 87
q0 50 41 80q30 23 67 23q41 0 63 -21q10 -9 26 -34q19 -30 39 -30q34 0 61 66zM263 1373q66 0 111 -41q37 -34 37 -84q0 -62 -51 -100q-43 -32 -105 -32q-63 0 -102 35q-42 37 -42 93q0 58 48 97q41 32 104 32zM718 1373q66 0 111 -41q37 -34 37 -84q0 -62 -51 -100
q-43 -32 -104 -32q-64 0 -103 35q-42 37 -42 93q0 58 49 97q40 32 103 32z" />
    <glyph glyph-name="Cacute" unicode="&#x106;" horiz-adv-x="1221" vert-adv-y="1502" 
d="M986 1727l-388 -273l-9 1l130 272h267zM1174 265l44 -35q-70 -77 -132 -126q-176 -138 -387 -138q-195 0 -361 116q-284 199 -284 586q0 200 83 371q82 170 251 270q155 91 345 91q119 0 225 -32q80 -24 189 -67l-56 -268h-46q-28 123 -110 202q-101 97 -221 97
q-91 0 -171 -62q-102 -77 -150 -247q-30 -104 -30 -232q0 -133 34 -261q46 -177 140 -291q117 -141 289 -141q131 0 249 82q37 26 99 85z" />
    <glyph glyph-name="cacute" unicode="&#x107;" horiz-adv-x="860" vert-adv-y="1502" 
d="M768 1363l-367 -288h-9l109 288h267zM841 208q-78 -108 -150 -155q-115 -74 -244 -74q-163 0 -277 122q-126 134 -126 345q0 137 55 259q62 136 180 204q93 54 208 54q149 0 247 -83q65 -56 65 -132q0 -60 -50 -90q-29 -17 -65 -17q-55 0 -92 47q-22 29 -30 109
q-7 69 -24 88q-17 20 -42 20q-40 0 -77 -38q-53 -55 -77 -187q-11 -63 -11 -136q0 -213 103 -335q62 -72 167 -72q89 0 154 52q18 16 45 43z" />
    <glyph glyph-name="Ccaron" unicode="&#x10c;" horiz-adv-x="1221" vert-adv-y="1502" 
d="M609 1449l-168 277h10l258 -161l250 161h11l-166 -277h-195zM1174 265l44 -35q-70 -77 -132 -126q-176 -138 -387 -138q-195 0 -361 116q-284 199 -284 586q0 200 83 371q82 170 251 270q155 91 345 91q119 0 225 -32q80 -24 189 -67l-56 -268h-46q-28 123 -110 202
q-101 97 -221 97q-91 0 -171 -62q-102 -77 -150 -247q-30 -104 -30 -232q0 -133 34 -261q46 -177 140 -291q117 -141 289 -141q131 0 249 82q37 26 99 85z" />
    <glyph glyph-name="ccaron" unicode="&#x10d;" horiz-adv-x="860" vert-adv-y="1502" 
d="M401 1075l-152 287h10l242 -170l235 170h10l-150 -287h-195zM841 208q-78 -108 -150 -155q-115 -74 -244 -74q-163 0 -277 122q-126 134 -126 345q0 137 55 259q62 136 180 204q93 54 208 54q149 0 247 -83q65 -56 65 -132q0 -60 -50 -90q-29 -17 -65 -17q-55 0 -92 47
q-22 29 -30 109q-7 69 -24 88q-17 20 -42 20q-40 0 -77 -38q-53 -55 -77 -187q-11 -63 -11 -136q0 -213 103 -335q62 -72 167 -72q89 0 154 52q18 16 45 43z" />
    <glyph glyph-name="dmacron" unicode="&#x111;" horiz-adv-x="1077" vert-adv-y="1502" 
d="M656 0v116q-59 -62 -100 -88q-78 -49 -166 -49q-105 0 -194 67q-152 114 -152 397q0 254 129 401q105 119 261 119q83 0 145 -32q27 -15 77 -54v166h-163v88h163v24q2 76 -53 88v45q132 31 170 47q35 11 140 63h44v-267h96v-88h-96v-903q0 -51 14 -76q10 -19 42 -37v-27
h-357zM656 183v523q0 81 -35 127q-38 48 -96 48q-73 0 -116 -81q-27 -52 -44 -164q-14 -88 -14 -179q0 -193 51 -275q46 -75 120 -75q53 0 134 76z" />
    <glyph glyph-name="Gbreve" unicode="&#x11e;" horiz-adv-x="1513" vert-adv-y="1502" 
d="M1077 1738q-6 -105 -36 -162q-32 -61 -96 -95q-54 -29 -120 -29q-96 0 -165 60q-62 55 -79 148q-5 26 -8 78h44q14 -57 57 -95q66 -57 151 -57q86 0 151 57q43 38 58 95h43zM1450 101q-144 -48 -257 -80q-193 -55 -396 -55q-164 0 -318 58q-184 70 -299 229
q-126 173 -126 403t127 414q109 158 290 246q171 83 353 83q150 0 315 -37q77 -17 202 -50l-57 -273h-49q-34 88 -63.5 131t-80.5 81q-123 90 -258 90q-191 0 -314 -164q-67 -89 -102 -258q-27 -128 -27 -267q0 -321 125 -486q107 -141 292 -141q100 0 167 48q63 44 63 142
v395q0 66 -26 98q-16 20 -56 37v29h493v-29q-40 -17 -56 -37q-26 -32 -26 -98v-371q0 -57 30 -82q16 -13 54 -21v-35z" />
    <glyph glyph-name="gbreve" unicode="&#x11f;" horiz-adv-x="956" vert-adv-y="1502" 
d="M722 1373q-5 -107 -35 -168q-30 -63 -93 -98q-52 -30 -116 -30q-94 0 -161 62q-59 56 -76 153q-4 26 -7 81h43q14 -61 55 -99q62 -60 146 -60t146 60q41 38 55 99h43zM776 843q100 120 191 120q39 0 63 -31q19 -24 19 -58q0 -45 -29 -70q-22 -19 -54 -19q-28 0 -70 22
q-32 17 -43 17q-17 0 -40 -20q47 -79 47 -157q0 -107 -70 -196q-110 -138 -331 -138q-42 0 -95 7q-78 -40 -78 -88q0 -39 51 -59q27 -10 392 -73q248 -44 248 -241q0 -166 -156 -254q-148 -83 -359 -83q-253 0 -398 102q-64 45 -64 116q0 70 79 136q66 54 169 91
q-88 24 -144 70q-50 40 -50 86q0 81 101 142q51 31 140 68q-93 28 -145 74q-105 91 -105 225q0 171 160 266q109 65 256 65q124 0 218 -49q41 -22 97 -71zM456 907q-40 0 -71 -30q-25 -24 -37 -56q-34 -84 -34 -185q0 -98 34 -184q32 -82 107 -82q139 0 139 290
q0 142 -50 202q-38 45 -88 45zM331 -56q-55 -34 -82 -58q-62 -55 -62 -118q0 -48 30 -86q26 -35 62 -53q87 -43 194 -43q162 0 225 73q39 45 39 102q0 74 -64 107q-44 24 -162 41q-104 14 -180 35z" />
    <glyph glyph-name="Idot" unicode="&#x130;" horiz-adv-x="678" vert-adv-y="1502" 
d="M341 1737q66 0 111 -41q37 -34 37 -84q0 -62 -51 -100q-43 -32 -105 -32q-63 0 -102 35q-42 37 -42 93q0 58 48 97q41 32 104 32zM88 1336v29h500v-29q-40 -17 -55 -36q-25 -32 -26 -99v-1037q1 -66 26 -98q15 -20 55 -37v-29h-500v29q41 17 56 37q26 33 26 98v1037
q0 65 -26 99q-15 19 -56 36z" />
    <glyph glyph-name="dotlessi" unicode="&#x131;" horiz-adv-x="546" vert-adv-y="1502" 
d="M65 815v45q134 31 173 47q34 11 140 62h43v-829q0 -51 14 -76q10 -19 43 -37v-27h-412v27q31 18 42 37q13 24 13 76v584q0 81 -56 91z" />
    <glyph glyph-name="Lslash" unicode="&#x141;" horiz-adv-x="1092" vert-adv-y="1502" 
d="M1050 0h-968v29q40 17 56 36q26 33 26 99v389l-122 -112v127l122 110v523q0 66 -26 99q-16 19 -56 36v29h502v-29q-41 -17 -56 -36q-26 -33 -26 -99v-273l169 153v-123l-169 -155v-628q1 -74 28 -95q26 -28 131 -29h58q252 8 353 249l45 -18z" />
    <glyph glyph-name="lslash" unicode="&#x142;" horiz-adv-x="529" vert-adv-y="1502" 
d="M114 584l-108 -98v122l108 96v448q1 79 -55 91v45q133 31 172 47q34 11 140 63h44v-465l107 97v-120l-107 -101v-669q0 -52 14 -76q10 -19 42 -37v-27h-413v27q32 18 42 37q14 24 14 76v444z" />
    <glyph glyph-name="OE" unicode="&#x152;" horiz-adv-x="2068" vert-adv-y="1502" 
d="M1982 0h-860q-47 0 -180 -19q-110 -15 -200 -15q-218 0 -391 121q-132 92 -210 243q-85 162 -85 354q0 274 164 469q123 148 297 209q105 37 215 37l385 -34h839l26 -261h-50q-79 200 -305 201h-115q-75 -1 -103 -21q-31 -20 -32 -76v-423h185q188 -1 207 146h45v-353
h-45q-12 79 -60 113q-50 34 -148 35h-184v-561q0 -49 25 -70q42 -38 155 -39h93q151 0 237 64q57 43 118 149l43 -15zM1029 491v384q0 222 -83 357q-66 109 -197 109q-154 0 -241 -158q-103 -186 -103 -505q0 -225 45 -364q55 -172 165 -246q68 -46 143 -46q80 0 141 51
q68 55 103 192q27 106 27 226z" />
    <glyph glyph-name="oe" unicode="&#x153;" horiz-adv-x="1571" vert-adv-y="1502" 
d="M1535 209q-88 -100 -161 -147q-129 -83 -251 -83q-169 0 -279 136q-62 -58 -112 -85q-97 -51 -215 -51q-177 0 -310 107q-163 131 -163 375q0 146 70 270q70 126 202 187q98 45 209 45q128 0 245 -67q52 -29 84 -67q113 134 282 134q176 0 287 -123q82 -92 97 -248
q3 -33 4 -103h-513q7 -106 25 -157q31 -92 100 -140q64 -45 147 -45q107 0 215 88zM1005 558h194q84 0 84 109q0 89 -19 152q-27 86 -112 86q-105 0 -136 -156q-10 -49 -11 -191zM524 908q-49 0 -91 -40q-87 -84 -87 -403q0 -427 184 -427q72 0 112 68q70 122 70 375
q0 245 -69 355q-46 72 -119 72z" />
    <glyph glyph-name="Scedilla" unicode="&#x15e;" horiz-adv-x="1254" vert-adv-y="1502" 
d="M88 0l9 480h45q40 -172 111 -256q66 -79 166 -122q96 -41 204 -41q132 0 212 61q63 48 63 129q0 82 -64 139q-60 55 -213 116q-203 81 -270 119q-243 139 -243 363q0 182 144 295q126 100 344 100q134 0 246 -38q27 -9 114 -46q35 -15 59 -15q35 0 50 22q12 18 16 59h44
v-419h-44q-18 148 -127 249q-126 115 -308 115q-124 0 -196 -59q-62 -50 -62 -122q0 -75 69 -124q61 -43 215 -103q223 -87 280 -122q230 -138 230 -381q0 -231 -189 -343q-127 -75 -309 -76l-48 -59q69 -10 107 -38q59 -42 59 -109q0 -62 -47 -108q-57 -56 -183 -65
q-56 -4 -115 -4q-43 0 -125 4v58q27 -2 47 -2q203 0 203 101q0 39 -31 59q-32 21 -81 21q-11 0 -27 -1q77 61 149 146q-138 18 -282 78q-56 24 -85 24q-64 0 -95 -85h-42z" />
    <glyph glyph-name="scedilla" unicode="&#x15f;" horiz-adv-x="831" vert-adv-y="1502" 
d="M417 -20l-11 -83q19 2 30 2q37 0 71 -19q65 -36 65 -110q0 -73 -57 -121q-46 -39 -117 -39q-62 0 -139 41l12 20q54 -16 86 -16q30 0 55 14q54 31 54 98q0 40 -23 63q-24 23 -62 23q-18 0 -48 -5l17 136q-54 7 -94 18q-72 20 -224 103l62 217l41 -13q-2 -22 -2 -33
q0 -103 76 -171q66 -59 154 -59q83 0 127 55q28 34 28 79q0 59 -50 102q-30 26 -64 43l-131 69q-109 57 -167 137q-47 66 -47 143q0 153 138 231q103 58 230 58q99 0 189 -34q58 -21 130 -55l-60 -210l-42 14q3 26 3 39q0 71 -54 129q-56 59 -147 59q-62 0 -101 -35
q-41 -37 -41 -89q0 -94 167 -178q145 -73 188 -99t75 -61q71 -75 71 -166q0 -121 -100 -206q-106 -90 -288 -91z" />
    <glyph glyph-name="Scaron" unicode="&#x160;" horiz-adv-x="1137" vert-adv-y="1502" 
d="M960 1011h-50q-14 134 -91 219q-94 106 -240 106q-99 0 -164 -54q-74 -61 -74 -165q0 -124 113 -206q63 -46 234 -113q225 -88 302 -154q106 -90 106 -253q0 -204 -170 -325q-140 -100 -334 -100q-185 0 -374 72q-72 27 -176 87l60 292l53 -7q0 -150 81 -249
q63 -75 174 -108q65 -20 130 -20q91 0 154 41q101 66 101 189q0 102 -87 179q-65 57 -243 133q-195 82 -267 139q-131 104 -131 287q0 144 87 245q131 153 398 153q148 0 289 -50q56 -19 172 -70zM473 1449l-168 277h10l258 -161l250 161h11l-166 -277h-195z" />
    <glyph glyph-name="scaron" unicode="&#x161;" horiz-adv-x="831" vert-adv-y="1502" 
d="M686 664l-42 14q3 26 3 39q0 71 -54 129q-56 59 -147 59q-62 0 -101 -35q-41 -37 -41 -89q0 -94 167 -178q147 -74 189 -99.5t74 -60.5q71 -75 71 -166q0 -138 -123 -224q-105 -74 -260 -74q-111 0 -202 35q-79 31 -188 91l62 217l41 -13q-2 -22 -2 -34q0 -102 76 -171
q66 -59 154 -59q83 0 127 55q28 34 28 79q0 59 -50 103q-30 25 -64 43l-131 68q-109 57 -167 138q-47 65 -47 143q0 153 138 231q103 58 230 58q99 0 189 -34q58 -21 130 -55zM319 1075l-152 287h10l242 -170l235 170h10l-150 -287h-195z" />
    <glyph glyph-name="Ydieresis" unicode="&#x178;" horiz-adv-x="1203" vert-adv-y="1502" 
d="M771 563v-399q0 -66 26 -98q16 -20 56 -37v-29h-497v29q40 17 55 37q26 33 26 98v399l-352 639q-63 113 -134 135v28h560v-28q-79 -21 -79 -71q0 -27 20 -64l287 -529l286 529q19 34 19 63q0 51 -87 72v28h300v-28q-83 -31 -139 -135zM471 1737q66 0 111 -41
q37 -34 37 -84q0 -62 -51 -100q-43 -32 -105 -32q-63 0 -102 35q-42 37 -42 93q0 58 48 97q41 32 104 32zM926 1737q66 0 111 -41q37 -34 37 -84q0 -62 -51 -100q-43 -32 -104 -32q-64 0 -103 35q-42 37 -42 93q0 58 49 97q40 32 103 32z" />
    <glyph glyph-name="Zcaron" unicode="&#x17d;" horiz-adv-x="1193" vert-adv-y="1502" 
d="M1095 0h-1083v78l741 1203h-176q-177 0 -300 -84q-75 -54 -124 -141l-50 9l77 300h989l-786 -1278h285q191 2 305 75q76 50 141 148l45 -19zM528 1449l-168 277h10l258 -161l250 161h11l-166 -277h-195z" />
    <glyph glyph-name="zcaron" unicode="&#x17e;" horiz-adv-x="912" vert-adv-y="1502" 
d="M809 0h-810l539 878h-131q-237 1 -289 -194l-49 15l58 232h771v-32l-521 -846h141q243 6 321 211l46 -16zM428 1075l-152 287h10l242 -170l235 170h10l-150 -287h-195z" />
    <glyph glyph-name="florin" unicode="&#x192;" horiz-adv-x="1195" vert-adv-y="1502" 
d="M928 861h-169l-158 -998h-301l158 998h-103l11 70h103l24 151q17 110 37 153q31 68 110 114q85 50 184 50q102 0 156 -41q35 -27 35 -70q0 -30 -16 -57q-32 -50 -95 -50q-55 0 -85 41q-11 15 -23 71q-9 44 -38 44q-18 0 -34 -17q-22 -23 -22 -61q0 -31 16 -63
q7 -13 55 -77q16 -21 16 -51q0 -17 -5 -51l-14 -86h169z" />
    <glyph glyph-name="circumflex" unicode="&#x2c6;" vert-adv-y="1502" 
d="M608 1362l152 -287h-10l-242 171l-235 -171h-10l150 287h195z" />
    <glyph glyph-name="caron" unicode="&#x2c7;" vert-adv-y="1502" 
d="M415 1075l-152 287h10l242 -170l235 170h10l-150 -287h-195z" />
    <glyph glyph-name="macron" unicode="&#x2c9;" vert-adv-y="1502" 
d="M176 1169v118h671v-118h-671z" />
    <glyph glyph-name="breve" unicode="&#x2d8;" vert-adv-y="1502" 
d="M756 1373q-5 -107 -35 -168q-30 -63 -93 -98q-52 -30 -116 -30q-94 0 -161 62q-59 56 -76 153q-4 26 -7 81h43q14 -61 55 -99q62 -60 146 -60t146 60q41 38 55 99h43z" />
    <glyph glyph-name="dotaccent" unicode="&#x2d9;" vert-adv-y="1502" 
d="M514 1373q66 0 111 -41q37 -34 37 -84q0 -62 -51 -100q-43 -32 -105 -32q-63 0 -102 35q-42 37 -42 93q0 58 48 97q41 32 104 32z" />
    <glyph glyph-name="ring" unicode="&#x2da;" vert-adv-y="1502" 
d="M515 1431q76 0 130 -59q46 -51 46 -119q0 -79 -59 -133q-51 -46 -120 -46q-79 0 -132 59q-46 51 -46 121q0 77 59 131q51 46 122 46zM511 1330q-32 0 -56 -26q-20 -22 -20 -51q0 -35 26 -58q22 -20 52 -20q34 0 57 26q20 22 20 52q0 33 -26 57q-22 20 -53 20z" />
    <glyph glyph-name="ogonek" unicode="&#x2db;" vert-adv-y="1502" 
d="M551 15q-48 -42 -66 -70q-32 -49 -32 -102q0 -60 41 -99q32 -31 79 -31q42 0 95 33l13 -22q-102 -80 -185 -80q-77 0 -122 64q-31 44 -31 96q0 98 83 174z" />
    <glyph glyph-name="tilde" unicode="&#x2dc;" vert-adv-y="1502" 
d="M263 1124l-37 4q22 123 70 164q36 31 85 31q38 0 161 -41q64 -21 113 -21q65 0 107 72l36 -5q-40 -187 -167 -187q-57 0 -146 26q-85 25 -127 25q-64 0 -95 -68z" />
    <glyph glyph-name="hungarumlaut" unicode="&#x2dd;" vert-adv-y="1502" 
d="M650 1359l-330 -259h-8l98 259h240zM972 1359l-330 -259h-8l98 259h240z" />
    <glyph glyph-name="pi" unicode="&#x3c0;" vert-adv-y="1502" 
d="M1149 981v-192h-233q-17 -44 -23 -64q-13 -42 -13 -114v-314q0 -113 21 -150q18 -33 64 -33q9 0 90 10v-45l-350 -101q-24 -7 -28 -7q-28 0 -71 51q-34 41 -45 85q-8 30 -8 87v298q2 137 86 219q50 52 91 78h-321l-8 -185q-9 -220 -51 -429q-23 -112 -56 -160
q-45 -66 -136 -66q-65 0 -104 36q-36 35 -36 90q0 66 61 133q91 99 117 201q23 93 40 264q4 49 8 115q-102 -7 -153 -30q-63 -29 -138 -119l-39 35l115 199q36 62 89 85q49 23 130 23h901z" />
    <glyph glyph-name="endash" unicode="&#x2013;" horiz-adv-x="1057" vert-adv-y="1502" 
d="M63 465v148h930v-148h-930z" />
    <glyph glyph-name="emdash" unicode="&#x2014;" horiz-adv-x="1414" vert-adv-y="1502" 
d="M0 465v148h1414v-148h-1414z" />
    <glyph glyph-name="quoteleft" unicode="&#x2018;" horiz-adv-x="562" vert-adv-y="1502" 
d="M439 1364q-138 -120 -138 -183q0 -28 43 -49q42 -20 58 -37q27 -31 27 -78q0 -63 -48 -98q-43 -31 -103 -31q-75 0 -119 46q-37 39 -37 99q0 111 122 241q81 87 169 139z" />
    <glyph glyph-name="quoteright" unicode="&#x2019;" horiz-adv-x="596" vert-adv-y="1502" 
d="M140 924q138 116 138 182q0 28 -43 49q-42 20 -58 38q-27 30 -27 77q0 63 48 98q43 31 103 31q76 0 120 -46q37 -39 37 -99q0 -111 -122 -241q-81 -87 -170 -139z" />
    <glyph glyph-name="quotesinglbase" unicode="&#x201a;" horiz-adv-x="565" vert-adv-y="1502" 
d="M107 -270q153 131 153 203q0 31 -48 54q-45 22 -64 43q-30 32 -30 85q0 71 54 110q48 34 114 34q84 0 133 -51q41 -43 41 -110q0 -123 -136 -268q-88 -95 -188 -155z" />
    <glyph glyph-name="quotedblleft" unicode="&#x201c;" horiz-adv-x="948" vert-adv-y="1502" 
d="M825 1364q-138 -119 -138 -183q0 -28 43 -49q42 -20 58 -37q27 -31 27 -78q0 -63 -48 -98q-43 -31 -103 -31q-76 0 -120 46q-37 39 -37 99q0 111 122 241q81 86 170 139zM439 1364q-138 -119 -138 -183q0 -28 43 -49q41 -19 58 -37q27 -30 27 -78q0 -63 -48 -98
q-43 -31 -103 -31q-75 0 -119 46q-37 39 -37 98q0 112 122 242q81 87 169 139z" />
    <glyph glyph-name="quotedblright" unicode="&#x201d;" horiz-adv-x="982" vert-adv-y="1502" 
d="M140 924q138 116 138 182q0 28 -43 49q-42 20 -58 38q-27 30 -27 77q0 63 48 98q43 31 103 31q76 0 120 -46q37 -39 37 -99q0 -111 -122 -241q-81 -87 -170 -139zM526 924q138 116 138 182q0 28 -43 49q-41 20 -58 38q-27 29 -27 77q0 63 48 98q43 31 103 31
q75 0 119 -46q37 -39 37 -98q0 -112 -122 -242q-81 -87 -169 -139z" />
    <glyph glyph-name="quotedblbase" unicode="&#x201e;" horiz-adv-x="982" vert-adv-y="1502" 
d="M140 -243q138 117 138 183q0 28 -43 49q-42 20 -58 38q-27 30 -27 77q0 63 49 98q43 31 102 31q76 0 120 -46q37 -39 37 -99q0 -111 -122 -241q-80 -85 -170 -139zM526 -243q138 117 138 183q0 28 -43 49q-42 20 -58 38q-27 29 -27 77q0 63 48 98q43 31 103 31
q75 0 119 -46q37 -39 37 -98q0 -112 -122 -242q-80 -86 -169 -139z" />
    <glyph glyph-name="dagger" unicode="&#x2020;" horiz-adv-x="931" vert-adv-y="1502" 
d="M628 615q-49 -118 -71 -232q-43 -200 -43 -810h-96q-1 355 -17 573q-17 226 -51 346q-16 52 -46 123q123 117 124 234q-76 -2 -146 -33q-75 -33 -116 -33q-53 0 -85 33t-32 83q0 51 35 86q30 29 76 29q48 0 127 -41q65 -33 92 -39q21 -5 49 -6q0 47 -7 83q-6 35 -35 110
q-42 109 -42 157q0 53 40 89q36 32 84 32q58 0 94 -45q28 -34 28 -79q0 -30 -6.5 -52t-38.5 -101q-37 -93 -40 -193q57 5 152 50q74 35 117 35q55 0 85 -40q24 -30 24 -76q0 -55 -32 -85q-34 -31 -87 -31q-40 0 -111 32q-74 33 -147 35q11 -131 122 -234z" />
    <glyph glyph-name="daggerdbl" unicode="&#x2021;" vert-adv-y="1502" 
d="M640 511q-43 -81 -74 -193q-32 -113 -32 -141q0 -22 17 -22q10 0 46 10q39 11 62 27l60 42q42 29 96 29q62 0 98 -42q34 -39 34 -87q0 -53 -40 -90q-38 -34 -87 -34q-44 0 -83 22q-5 3 -46 28q-55 33 -118 49q-21 5 -27 5q-11 0 -11 -13q0 -72 53 -166q30 -52 36 -63
q29 -54 29 -113q0 -71 -46 -120q-36 -38 -95 -38q-64 0 -102 47q-38 49 -38 110q0 60 29 113q5 9 36 64q53 92 53 165q0 13 -11 13q-5 0 -33 -7q-57 -14 -112 -46q-58 -35 -77.5 -42.5t-51.5 -7.5q-57 0 -96 43q-31 35 -31 81q0 57 43 97q34 32 89 32q40 0 78 -19
q9 -5 78 -53q25 -18 81 -32q21 -5 27 -5q17 0 17 23q0 29 -32 141q-32 116 -74 193q40 75 74 192q33 118 33 148q0 16 -13 16q-18 0 -53 -9q-34 -9 -61 -28l-60 -42q-41 -29 -95 -29q-63 0 -99 41q-33 39 -33 87q0 54 40 90q37 34 94 34q36 0 69 -15q7 -4 57 -36
q82 -51 142 -51q9 0 9 17q0 69 -51 154q-38 64 -48 91q-18 46 -18 87q0 74 46 124q36 38 94 38q65 0 103 -47q38 -49 38 -116q0 -45 -20 -92q-9 -24 -46 -85q-51 -85 -51 -154q0 -17 9 -17q6 0 43 7q42 9 142 72q37 23 83 23q65 0 103 -43q31 -35 31 -81q0 -57 -43 -96
q-34 -32 -90 -32q-39 0 -77 19q-9 4 -78 52q-32 22 -86 32q-25 4 -29 4q-13 0 -13 -24q0 -29 35 -139q42 -134 74 -192z" />
    <glyph glyph-name="bullet" unicode="&#x2022;" horiz-adv-x="1365" vert-adv-y="1502" 
d="M689 978q113 0 196 -83q84 -83 84 -201t-83 -201t-201 -83q-116 0 -199 82q-85 84 -85 202q0 120 84 202q86 82 204 82z" />
    <glyph glyph-name="ellipsis" unicode="&#x2026;" horiz-adv-x="1693" vert-adv-y="1502" 
d="M285 260q74 0 123 -46q41 -37 41 -93q0 -69 -57 -111q-48 -35 -116 -35q-70 0 -115 39q-46 40 -46 103q0 64 54 107q45 36 116 36zM849 260q74 0 123 -46q41 -37 41 -93q0 -69 -57 -111q-48 -35 -116 -35q-70 0 -115 39q-46 40 -46 103q0 64 54 107q45 36 116 36z
M1414 260q74 0 123 -46q41 -37 41 -93q0 -69 -57 -111q-48 -35 -116 -35q-70 0 -115 39q-46 40 -46 103q0 64 54 107q45 36 116 36z" />
    <glyph glyph-name="perthousand" unicode="&#x2030;" horiz-adv-x="2189" vert-adv-y="1502" 
d="M148 0l1026 1365h135l-1026 -1365h-135zM382 1399q110 0 197 -67q61 -47 95 -133q31 -79 31 -169q0 -151 -90 -259q-84 -102 -233 -102q-120 0 -211 69q-61 46 -94 131q-31 79 -31 170q0 154 90 255q93 105 246 105zM372 1345q-38 0 -60 -32t-27 -75q-11 -88 -11 -200
q0 -221 37 -280q23 -36 64 -36q42 0 65 36q37 58 37 255q0 195 -21 259q-24 73 -84 73zM1088 696q110 0 197 -67q61 -47 95 -133q31 -79 31 -169q0 -151 -90 -259q-84 -102 -233 -102q-120 0 -211 69q-61 46 -94 131q-31 79 -31 170q0 154 90 255q93 105 246 105zM1078 642
q-38 0 -60 -32t-27 -75q-11 -88 -11 -200q0 -221 37 -280q23 -36 64 -36q42 0 65 36q37 58 37 255q0 195 -21 259q-24 73 -84 73zM1820 696q110 0 197 -67q61 -47 95 -133q31 -79 31 -169q0 -151 -90 -259q-84 -102 -233 -102q-120 0 -211 69q-61 46 -94 131q-31 79 -31 170
q0 154 90 255q93 105 246 105zM1810 642q-38 0 -60 -32q-22 -33 -27 -75q-11 -88 -11 -200q0 -221 37 -280q23 -36 64 -36q42 0 65 36q37 58 37 255q0 194 -21 259q-23 73 -84 73z" />
    <glyph glyph-name="guilsinglleft" unicode="&#x2039;" horiz-adv-x="499" vert-adv-y="1502" 
d="M419 131l-339 390l339 382v-57l-155 -325l155 -340v-50z" />
    <glyph glyph-name="guilsinglright" unicode="&#x203a;" horiz-adv-x="499" vert-adv-y="1502" 
d="M80 131v50l155 340l-155 325v57l339 -382z" />
    <glyph glyph-name="franc" unicode="&#x20a3;" horiz-adv-x="1833" vert-adv-y="1502" 
d="M935 588h-44q-3 63 -33 94q-49 50 -175 51h-189v-563q0 -76 34 -108q23 -21 71 -33v-29h-523v29q41 17 56 37q26 33 26 98v1037q0 65 -26 98q-15 20 -56 37v29h994l26 -262h-46q-11 52 -53 102q-98 109 -264 109h-105q-83 -1 -107 -28q-27 -25 -27 -87v-405h188
q198 -1 209 149h44v-355zM1527 738v-598q0 -51 14 -76q10 -19 42 -37v-27h-413v27q32 18 42 37q14 25 14 76v584q0 80 -56 91v45q134 31 173 47q34 11 140 62h44v-162q103 155 224 155q54 0 93 -37q32 -30 32 -78q0 -52 -35 -85q-32 -30 -79 -30q-37 0 -56 12l-44 30
q-22 15 -44 15q-50 0 -91 -51z" />
    <glyph glyph-name="a" unicode="&#x20ac;" horiz-adv-x="1446" vert-adv-y="1502" 
d="M14 742l49 120h169q45 161 149 284t247 188q140 64 298 64q284 0 506 -213l-51 -122q-185 215 -457 215q-257 0 -436 -191q-91 -97 -131 -225h780h159l-49 -120h-915q-2 -37 -2 -58t2 -60h866l-50 -120h-791q28 -94 95 -183q77 -101 189 -161q132 -72 282 -72
q275 0 458 215v-170q-213 -166 -455 -166q-223 0 -406 126q-215 148 -288 411h-216l49 120h146q-2 40 -2 61q0 24 2 57h-197z" />
    <glyph glyph-name="trademark" unicode="&#x2122;" horiz-adv-x="1908" vert-adv-y="1502" 
d="M841 1177l-45 -7q-79 133 -200 133q-38 0 -52 -14q-13 -14 -13 -45v-594q0 -36 13 -54q9 -11 37 -21v-29h-325v29q28 10 37 21q14 18 14 54v600q0 53 -64 53q-138 0 -208 -133l-44 7l50 188h750zM1342 546h-82l-200 636l-77 -530q-1 -12 -1 -19q0 -26 16 -40
q13 -11 62 -21v-26h-228v25q71 17 81 77l90 614q2 10 2 15q0 46 -64 59v29h280l151 -473l138 473h276v-28q-58 -16 -58 -58q0 -7 1 -17l92 -614q10 -61 63 -77v-25h-324v25q46 14 46 58q0 9 -1 17l-76 534z" />
    <glyph glyph-name="Ohm" unicode="&#x2126;" horiz-adv-x="1365" vert-adv-y="1502" 
d="M1462 341l-78 -341h-619v187q115 78 167 165q94 159 94 417q0 302 -135 448q-78 85 -207 85q-124 0 -201 -78q-144 -144 -144 -458q0 -278 117 -448q47 -67 146 -131v-187h-624l-76 341h46q24 -76 71 -112q39 -28 115 -35l88 -3l230 -17v18q-110 34 -171.5 63.5
t-119.5 75.5q-224 177 -224 445q0 186 118 341q207 270 625 270q350 0 550 -178q84 -74 135 -175q63 -124 63 -256q0 -220 -146 -378q-68 -73 -146.5 -117.5t-221.5 -90.5v-18l262 18q77 4 108 10q74 18 111 88q7 13 21 51h46z" />
    <glyph glyph-name="partialdiff" unicode="&#x2202;" vert-adv-y="1502" 
d="M270 1398l19 38q197 -66 350 -202q119 -106 203 -260q141 -259 141 -504q0 -243 -160 -389q-126 -115 -311 -115q-180 0 -302 106q-168 145 -168 391q0 172 84 298q75 113 212 162q83 30 154 30q83 0 124 -22q34 -18 52 -25q-66 174 -174 302q-48 58 -146 137
q-38 30 -78 53zM512 886q-81 0 -118 -79q-21 -44 -34 -146q-13 -96 -13 -191q0 -138 23 -264q31 -173 142 -173q76 0 117 86q21 44 34 141q15 105 15 220q0 132 -20 237q-21 112 -67 146q-33 23 -79 23z" />
    <glyph glyph-name="increment" unicode="&#x2206;" horiz-adv-x="1365" vert-adv-y="1502" 
d="M778 1388l627 -1388h-1445l621 1388h197zM570 1075l-334 -758q-23 -53 -23 -77q0 -27 24 -39q19 -8 82 -8h627z" />
    <glyph glyph-name="product" unicode="&#x220f;" horiz-adv-x="1365" vert-adv-y="1502" 
d="M-98 1365h1562v-43h-47q-82 1 -114 -41q-22 -30 -22 -122v-1430q0 -92 22 -122q31 -41 109 -41h50v-44h-726v44h44q83 -1 114 41q22 30 22 122v1430q0 92 -22 122q-32 42 -114 41h-191q-82 1 -114 -41q-22 -30 -22 -122v-1430q0 -92 22 -122q30 -41 110 -41h49v-44h-726
v44h44q83 -1 114 41q22 30 22 122v1430q0 92 -22 122q-32 42 -114 41h-50v43z" />
    <glyph glyph-name="summation" unicode="&#x2211;" horiz-adv-x="1365" vert-adv-y="1502" 
d="M67 1365h1163v-373h-45q-13 131 -83 210q-49 54 -115 74q-45 13 -112 13h-414l384 -683l-519 -892h530q113 0 177 25q184 75 237 308h44l-68 -525h-1179l532 916z" />
    <glyph glyph-name="minus" unicode="&#x2212;" vert-adv-y="1502" 
d="M10 833h1004v-170h-1004v170z" />
    <glyph glyph-name="fraction" unicode="&#x2215;" horiz-adv-x="262" vert-adv-y="1502" 
d="M-59 0h-135l518 1365h133z" />
    <glyph glyph-name="periodcentered" unicode="&#x2219;" horiz-adv-x="515" vert-adv-y="1502" 
d="M260 789q66 0 114 -50q43 -46 43 -109q0 -69 -50 -116q-46 -44 -109 -44q-69 0 -116 50q-44 47 -44 109q0 70 50 116q48 44 112 44z" />
    <glyph glyph-name="radical" unicode="&#x221a;" horiz-adv-x="1365" vert-adv-y="1502" 
d="M1331 1686v-83h-220l-378 -1603h-311l-171 710h-217v83h468l161 -690l372 1583h296z" />
    <glyph glyph-name="infinity" unicode="&#x221e;" horiz-adv-x="1365" vert-adv-y="1502" 
d="M588 493q-52 -70 -100 -113q-86 -76 -193 -76q-142 0 -235 108q-86 101 -86 256q0 125 56 231q57 106 158 157q77 39 166 39q213 0 356 -234q42 83 89 135q93 103 233 103q170 0 273 -130q87 -109 87 -274q0 -196 -125 -316q-63 -60 -154 -91q-69 -24 -138 -24
q-157 0 -289 116q-53 47 -98 113zM760 791l9 -15q36 -60 76 -112q75 -96 174 -142q61 -28 119 -28q76 0 129 50q62 60 62 148q0 184 -296 184q-112 0 -197 -33q-23 -8 -51 -27.5t-25 -24.5zM524 583q-65 110 -115 171q-89 108 -208 108q-77 0 -120 -53q-46 -56 -46 -132
q0 -71 54 -107q74 -50 210 -50q82 0 149 21q33 10 55 26q22 15 21 16z" />
    <glyph glyph-name="integral" unicode="&#x222b;" vert-adv-y="1502" 
d="M694 1154v-1183q0 -142 -7 -185q-24 -153 -153 -235q-108 -68 -284 -68q-169 0 -272 66q-55 35 -86 93q-25 47 -25 98q0 76 53 127q50 49 120 49q68 0 119 -48q49 -47 49 -107q0 -36 -20 -69q-5 -8 -33 -41q-13 -15 -13 -32q0 -27 24 -45q25 -19 57 -19q57 0 84 52
q22 41 22 141v1274q0 152 7 194q25 154 153 235q108 68 285 68q168 0 271 -66q55 -34 86 -93q25 -47 25 -98q0 -76 -53 -127q-49 -49 -120 -49q-69 0 -119 48q-49 47 -49 107q0 30 9.5 50t43.5 60q13 15 13 33q0 26 -25 45q-24 18 -57 18q-68 0 -90 -69q-15 -44 -15 -224z
" />
    <glyph glyph-name="approxequal" unicode="&#x2248;" vert-adv-y="1502" 
d="M919 1059l61 -31q-51 -85 -134 -162q-80 -73 -188 -73q-48 0 -112 18q-32 9 -127 39q-73 23 -140 23q-70 0 -116 -36q-9 -7 -37 -32q-7 -7 -22 -19l-59 30q79 120 138 168q85 69 178 69q59 0 191 -40q130 -39 192 -39q91 0 175 85zM919 710l61 -31q-51 -86 -134 -162
q-80 -73 -188 -73q-47 0 -112 18q-39 11 -127 39q-72 23 -140 23q-70 0 -116 -36q-8 -6 -37 -32q-7 -7 -22 -19l-59 31q78 119 138 168q85 69 178 69q58 0 191 -40q130 -40 192 -40q92 0 175 85z" />
    <glyph glyph-name="notequal" unicode="&#x2260;" vert-adv-y="1502" 
d="M536 992l126 270l154 -72l-93 -198h292v-165h-369l-70 -150h439v-166h-517l-128 -275l-154 72l95 203h-301v166h379l70 150h-449v165h526z" />
    <glyph glyph-name="lessequal" unicode="&#x2264;" vert-adv-y="1502" 
d="M946 1320v-144l-480 -300l480 -329v-381l-868 596v19zM78 127h868v-127h-868v127z" />
    <glyph glyph-name="greaterequal" unicode="&#x2265;" vert-adv-y="1502" 
d="M78 127h868v-127h-868v127zM78 166v143l480 300l-480 329v382l868 -606v-19z" />
    <glyph glyph-name="lozenge" unicode="&#x25ca;" horiz-adv-x="1365" vert-adv-y="1502" 
d="M683 1419l531 -736l-531 -736l-532 736zM683 1238l-404 -555l404 -554l403 554z" />
    <glyph glyph-name="fi" unicode="&#xf001;" horiz-adv-x="1127" vert-adv-y="1502" 
d="M590 861h-170v-721q0 -51 14 -76q10 -19 42 -37v-27h-412v27q32 18 42 37q13 24 13 76v721h-103v70h103v151q0 110 13 153q20 68 92 114q77 50 176 50q109 0 167 -44q44 -34 44 -83q0 -38 -24 -63q-27 -28 -73 -28q-54 0 -90 41q-13 14 -35 71q-17 44 -44 44
q-20 0 -33 -17.5t-13 -42.5q0 -39 27 -81q9 -13 68 -77q26 -31 26 -102v-86h170v-70zM647 815v45q135 31 174 47q34 11 140 62h43v-829q0 -51 13 -76q10 -19 42 -37v-27h-412v27q32 18 43 37q14 24 14 76v584q1 80 -57 91zM840 1383q88 0 130 -42q32 -33 32 -76
q0 -51 -42 -86q-40 -33 -124 -33q-91 0 -132 41q-34 34 -34 81q0 50 41 82q43 33 129 33z" />
    <glyph glyph-name="fl" unicode="&#xf002;" horiz-adv-x="1106" vert-adv-y="1502" 
d="M590 861h-170v-721q0 -51 14 -76q10 -19 42 -37v-27h-412v27q32 18 42 37q13 24 13 76v721h-103v70h103v151q0 110 13 153q20 68 92 114q77 50 176 50q109 0 167 -44q44 -34 44 -83q0 -38 -24 -63q-27 -28 -73 -28q-54 0 -90 41q-13 14 -35 71q-17 44 -44 44
q-20 0 -33 -17.5t-13 -42.5q0 -39 27 -81q9 -13 68 -77q26 -31 26 -102v-86h170v-70zM639 1243v45q133 31 172 47q34 11 140 63h44v-1258q0 -51 13 -76q11 -19 42 -37v-27h-413v27q33 17 43 37q14 25 14 76v1012q2 79 -55 91z" />
    <glyph glyph-name="glyph172" horiz-adv-x="1195" vert-adv-y="1195" 
 />
    <glyph glyph-name="glyph210" horiz-adv-x="614" vert-adv-y="1502" 
 />
    <glyph glyph-name="glyph262" vert-adv-y="1502" 
d="M306 1743q58 0 97 -43q32 -34 32 -85q0 -63 -45 -102q-37 -33 -91 -33q-56 0 -91 37q-36 37 -36 94q0 60 42 98q36 34 92 34zM716 1744q59 0 98 -43q32 -34 32 -86q0 -63 -45 -102q-38 -33 -92 -33q-56 0 -91 37q-36 37 -36 95q0 59 42 98q37 34 92 34z" />
    <glyph glyph-name="glyph263" vert-adv-y="1502" 
d="M416 1449l-168 277h10l258 -161l250 161h11l-166 -277h-195z" />
    <glyph glyph-name="glyph264" vert-adv-y="1502" 
d="M514 1737q66 0 111 -41q37 -34 37 -84q0 -62 -51 -100q-43 -32 -105 -32q-63 0 -102 35q-42 37 -42 93q0 58 48 97q41 32 104 32z" />
    <glyph glyph-name="glyph265" vert-adv-y="1502" 
d="M764 1738q-6 -105 -36 -162q-32 -61 -96 -95q-54 -29 -120 -29q-96 0 -165 60q-62 55 -79 148q-5 26 -8 78h44q14 -57 57 -95q66 -57 151 -57q86 0 151 57q43 38 58 95h43z" />
    <glyph glyph-name="glyph266" vert-adv-y="1502" 
d="M793 1727l-388 -273l-9 1l130 272h267z" />
    <glyph glyph-name="glyph267" vert-adv-y="1502" 
d="M263 1485l-37 4q22 124 70 165q36 31 85 31q38 0 161 -41q64 -22 113 -22q65 0 107 73l36 -6q-40 -187 -167 -187q-56 0 -146 26q-86 26 -127 26q-64 0 -95 -69z" />
    <glyph glyph-name="glyph268" vert-adv-y="1502" 
d="M286 1737q66 0 111 -41q37 -34 37 -84q0 -62 -51 -100q-43 -32 -105 -32q-63 0 -102 35q-42 37 -42 93q0 58 48 97q41 32 104 32zM741 1737q66 0 111 -41q37 -34 37 -84q0 -62 -51 -100q-43 -32 -104 -32q-64 0 -103 35q-42 37 -42 93q0 58 49 97q40 32 103 32z" />
    <glyph glyph-name="glyph269" vert-adv-y="1502" 
d="M609 1726l168 -277h-11l-257 161l-251 -161h-10l166 277h195z" />
    <glyph glyph-name="glyph270" vert-adv-y="1502" 
d="M306 1379q58 0 97 -43q32 -34 32 -85q0 -63 -45 -102q-37 -33 -91 -33q-56 0 -91 37q-36 37 -36 94q0 60 42 98q36 34 92 34zM716 1380q59 0 98 -43q32 -34 32 -86q0 -63 -45 -102q-38 -33 -92 -33q-56 0 -91 37q-36 37 -36 95q0 59 42 98q37 34 92 34z" />
    <glyph glyph-name="glyph271" vert-adv-y="1502" 
d="M232 1727h267l130 -272l-10 -1z" />
    <glyph glyph-name="glyph273" horiz-adv-x="614" vert-adv-y="1502" 
 />
    </font>
</defs>
</svg>
